<svg version="1.1" viewBox="0.0 0.0 1305.5223097112862 255.64041994750656" fill="none" stroke="none" stroke-linecap="square" stroke-miterlimit="10" xmlns:xlink="http://www.w3.org/1999/xlink" xmlns="http://www.w3.org/2000/svg"><clipPath id="p.0"><path d="m0 0l1305.5223 0l0 255.64043l-1305.5223 0l0 -255.64043z" clip-rule="nonzero"/></clipPath><g clip-path="url(#p.0)"><path fill="#000000" fill-opacity="0.0" d="m0 0l1305.5223 0l0 255.64043l-1305.5223 0z" fill-rule="evenodd"/><path fill="#1f497d" d="m88.09974 165.53674l-10.565193 0l0 23.748032l-65.93874 -47.496063l65.93874 -47.496063l0 23.748032l10.565193 0z" fill-rule="evenodd"/><path stroke="#6aa84f" stroke-width="4.0" stroke-linejoin="round" stroke-linecap="butt" d="m88.09974 165.53674l-10.565193 0l0 23.748032l-65.93874 -47.496063l65.93874 -47.496063l0 23.748032l10.565193 0z" fill-rule="evenodd"/><path fill="#1f497d" d="m1217.4226 118.04068l10.565186 0l0 -23.748032l65.93872 47.496063l-65.93872 47.496063l0 -23.748032l-10.565186 0z" fill-rule="evenodd"/><path stroke="#6aa84f" stroke-width="4.0" stroke-linejoin="round" stroke-linecap="butt" d="m1217.4226 118.04068l10.565186 0l0 -23.748032l65.93872 47.496063l-65.93872 47.496063l0 -23.748032l-10.565186 0z" fill-rule="evenodd"/><path fill="#e06666" d="m339.06036 78.166664l125.480316 0l0 127.2441l-125.480316 0z" fill-rule="evenodd"/><path stroke="#1f497d" stroke-width="4.0" stroke-linejoin="round" stroke-linecap="butt" d="m339.06036 78.166664l125.480316 0l0 127.2441l-125.480316 0z" fill-rule="evenodd"/><path fill="#e06666" d="m464.54068 78.166664l125.480316 0l0 127.2441l-125.480316 0z" fill-rule="evenodd"/><path stroke="#1f497d" stroke-width="4.0" stroke-linejoin="round" stroke-linecap="butt" d="m464.54068 78.166664l125.480316 0l0 127.2441l-125.480316 0z" fill-rule="evenodd"/><path fill="#e06666" d="m590.021 78.166664l125.48035 0l0 127.2441l-125.48035 0z" fill-rule="evenodd"/><path stroke="#1f497d" stroke-width="4.0" stroke-linejoin="round" stroke-linecap="butt" d="m590.021 78.166664l125.48035 0l0 127.2441l-125.48035 0z" fill-rule="evenodd"/><path fill="#e06666" d="m715.50134 78.166664l125.480286 0l0 127.2441l-125.480286 0z" fill-rule="evenodd"/><path stroke="#1f497d" stroke-width="4.0" stroke-linejoin="round" stroke-linecap="butt" d="m715.50134 78.166664l125.480286 0l0 127.2441l-125.480286 0z" fill-rule="evenodd"/><path fill="#e06666" d="m840.9816 78.166664l125.480286 0l0 127.2441l-125.480286 0z" fill-rule="evenodd"/><path stroke="#1f497d" stroke-width="4.0" stroke-linejoin="round" stroke-linecap="butt" d="m840.9816 78.166664l125.480286 0l0 127.2441l-125.480286 0z" fill-rule="evenodd"/><path fill="#e06666" d="m966.4619 78.166664l125.48035 0l0 127.2441l-125.48035 0z" fill-rule="evenodd"/><path stroke="#1f497d" stroke-width="4.0" stroke-linejoin="round" stroke-linecap="butt" d="m966.4619 78.166664l125.48035 0l0 127.2441l-125.48035 0z" fill-rule="evenodd"/><path fill="#e06666" d="m213.58005 78.166664l125.480316 0l0 127.2441l-125.480316 0z" fill-rule="evenodd"/><path stroke="#1f497d" stroke-width="4.0" stroke-linejoin="round" stroke-linecap="butt" d="m213.58005 78.166664l125.480316 0l0 127.2441l-125.480316 0z" fill-rule="evenodd"/><path fill="#000000" fill-opacity="0.0" d="m383.81628 29.694225l35.968506 0l0 48.47244l-35.968506 0z" fill-rule="evenodd"/><path fill="#000000" d="m401.80368 61.9686q-1.609375 0 -2.796875 -0.625q-1.1875 -0.640625 -1.84375 -1.796875q-0.640625 -1.171875 -0.640625 -2.734375l0 -7.671875q0 -1.59375 0.640625 -2.734375q0.65625 -1.15625 1.84375 -1.796875q1.1875 -0.640625 2.796875 -0.640625q1.625 0 2.796875 0.640625q1.1875 0.640625 1.828125 1.796875q0.65625 1.140625 0.65625 2.734375l0 7.671875q0 1.5625 -0.65625 2.734375q-0.640625 1.15625 -1.828125 1.796875q-1.1875 0.625 -2.796875 0.625zm0 -1.84375q1.4375 0 2.3125 -0.921875q0.875 -0.921875 0.875 -2.390625l0 -7.671875q0 -1.46875 -0.875 -2.390625q-0.875 -0.921875 -2.3125 -0.921875q-1.4375 0 -2.3125 0.921875q-0.875 0.921875 -0.875 2.390625l0 7.671875q0 1.46875 0.875 2.390625q0.875 0.921875 2.3125 0.921875zm0 -5.734375q-0.65625 0 -1.046875 -0.40625q-0.390625 -0.40625 -0.390625 -1.078125q0 -0.65625 0.390625 -1.046875q0.390625 -0.390625 1.046875 -0.390625q0.640625 0 1.03125 0.390625q0.40625 0.390625 0.40625 1.046875q0 0.671875 -0.40625 1.078125q-0.390625 0.40625 -1.03125 0.40625z" fill-rule="nonzero"/><path fill="#000000" fill-opacity="0.0" d="m509.2966 29.694225l35.968475 0l0 48.47244l-35.968475 0z" fill-rule="evenodd"/><path fill="#000000" d="m522.2371 61.734226l0 -1.96875l4.75 0l0 -13.75l-4.75 3.546875l0 -2.390625l3.96875 -2.953125l2.953125 0l0 15.546875l3.875 0l0 1.96875l-10.796875 0z" fill-rule="nonzero"/><path fill="#000000" fill-opacity="0.0" d="m637.2047 29.694225l35.968506 0l0 48.47244l-35.968506 0z" fill-rule="evenodd"/><path fill="#000000" d="m650.19214 61.734226l0 -2.203125l5.359375 -5.6875q1.359375 -1.46875 1.984375 -2.609375q0.625 -1.140625 0.625 -2.203125q0 -1.453125 -0.8125 -2.296875q-0.796875 -0.84375 -2.1875 -0.84375q-1.53125 0 -2.40625 0.875q-0.875 0.859375 -0.875 2.375l-2.15625 0q0.046875 -1.59375 0.71875 -2.75q0.6875 -1.171875 1.890625 -1.796875q1.21875 -0.625 2.828125 -0.625q1.59375 0 2.75 0.625q1.171875 0.609375 1.796875 1.734375q0.625 1.125 0.625 2.6875q0 1.484375 -0.796875 2.953125q-0.796875 1.46875 -2.59375 3.328125l-4.328125 4.46875l8.0 0l0 1.96875l-10.421875 0z" fill-rule="nonzero"/><path fill="#000000" fill-opacity="0.0" d="m760.2572 29.694225l35.968506 0l0 48.47244l-35.968506 0z" fill-rule="evenodd"/><path fill="#000000" d="m777.979 61.9686q-1.578125 0 -2.78125 -0.625q-1.1875 -0.640625 -1.828125 -1.765625q-0.640625 -1.125 -0.640625 -2.640625l2.15625 0q0 1.453125 0.828125 2.28125q0.828125 0.828125 2.28125 0.828125q1.5 0 2.3125 -0.859375q0.8125 -0.859375 0.8125 -2.25l0 -1.25q0 -1.484375 -0.8125 -2.296875q-0.8125 -0.828125 -2.3125 -0.828125l-1.796875 0l0 -2.15625l4.34375 -4.21875l-7.09375 0l0 -1.96875l9.28125 0l0 2.15625l-4.671875 4.53125l0 -0.265625q2.390625 0 3.796875 1.375q1.421875 1.359375 1.421875 3.671875l0 1.25q0 1.515625 -0.65625 2.640625q-0.65625 1.125 -1.859375 1.765625q-1.203125 0.625 -2.78125 0.625z" fill-rule="nonzero"/><path fill="#000000" fill-opacity="0.0" d="m885.73755 29.694225l35.968506 0l0 48.47244l-35.968506 0z" fill-rule="evenodd"/><path fill="#000000" d="m906.36554 61.734226l0 -3.84375l-7.921875 0l0 -3.375l6.9375 -10.296875l2.34375 0l-7.125 10.75l0 0.953125l5.765625 0l0 -4.265625l2.15625 0l0 10.078125l-2.15625 0z" fill-rule="nonzero"/><path fill="#e06666" d="m88.09974 78.166664l125.48031 0l0 127.2441l-125.48031 0z" fill-rule="evenodd"/><path stroke="#1f497d" stroke-width="4.0" stroke-linejoin="round" stroke-linecap="butt" d="m88.09974 78.166664l125.48031 0l0 127.2441l-125.48031 0z" fill-rule="evenodd"/><path fill="#e06666" d="m1091.9423 78.166664l125.48035 0l0 127.2441l-125.48035 0z" fill-rule="evenodd"/><path stroke="#1f497d" stroke-width="4.0" stroke-linejoin="round" stroke-linecap="butt" d="m1091.9423 78.166664l125.48035 0l0 127.2441l-125.48035 0z" fill-rule="evenodd"/><path fill="#000000" fill-opacity="0.0" d="m339.06036 29.694225l627.40155 0l0 196.25197l-627.40155 0z" fill-rule="evenodd"/><path stroke="#5b0f00" stroke-width="4.0" stroke-linejoin="round" stroke-linecap="butt" stroke-dasharray="16.0,12.0" d="m339.06036 29.694225l627.40155 0l0 196.25197l-627.40155 0z" fill-rule="evenodd"/><path fill="#000000" fill-opacity="0.0" d="m249.44357 29.694225l92.47244 0l0 48.47244l-92.47244 0z" fill-rule="evenodd"/><path fill="#000000" d="m262.59982 45.265476l0 16.46875l-2.0625 0l0 -16.46875l2.0625 0zm9.349335 3.96875q1.859375 0 2.9375 1.203125q1.09375 1.1875 1.09375 3.234375l0 8.0625l-1.859375 0l0 -8.359375q0 -0.8125 -0.3125 -1.375q-0.3125 -0.5625 -0.875 -0.859375q-0.5625 -0.296875 -1.234375 -0.296875q-0.96875 0 -1.78125 0.546875q-0.796875 0.53125 -1.25 1.5q-0.453125 0.953125 -0.453125 2.203125l0 6.640625l-1.875 0l0 -12.1875l1.78125 0l0 2.25l0.046875 0q0.578125 -1.21875 1.5625 -1.890625q1.0 -0.671875 2.21875 -0.671875zm17.05371 -3.96875l0 16.46875l-1.71875 0l0 -2.15625l-0.046875 0q-1.21875 2.390625 -3.8125 2.390625q-1.390625 0 -2.515625 -0.78125q-1.109375 -0.796875 -1.734375 -2.25q-0.625 -1.453125 -0.625 -3.296875q0 -1.84375 0.625 -3.3125q0.625 -1.46875 1.78125 -2.28125q1.171875 -0.8125 2.640625 -0.8125q1.171875 0 2.015625 0.5q0.859375 0.5 1.515625 1.46875l0 -5.9375l1.875 0zm-8.4375 10.15625q0 2.359375 0.8125 3.6875q0.828125 1.3125 2.34375 1.3125q0.875 0 1.671875 -0.515625q0.8125 -0.53125 1.265625 -1.40625q0.46875 -0.875 0.46875 -1.953125l0 -2.15625q0 -1.6875 -0.9375 -2.671875q-0.921875 -1.0 -2.453125 -1.0q-1.390625 0 -2.28125 1.28125q-0.890625 1.28125 -0.890625 3.421875zm16.569336 -6.1875q2.4375 0 3.875 1.703125q1.453125 1.703125 1.453125 4.578125l0 0.265625l-8.859375 0l0 0.296875q0 1.390625 0.46875 2.34375q0.46875 0.9375 1.28125 1.453125q0.8125 0.515625 1.890625 0.515625q1.203125 0 2.03125 -0.625q0.828125 -0.640625 1.21875 -1.734375l1.765625 0.359375q-0.546875 1.640625 -1.9375 2.609375q-1.390625 0.96875 -3.234375 0.96875q-2.5 0 -4.046875 -1.734375q-1.546875 -1.734375 -1.546875 -4.59375q0 -1.796875 0.703125 -3.265625q0.703125 -1.484375 2.0 -2.3125q1.296875 -0.828125 2.9375 -0.828125zm3.265625 5.15625q0 -1.703125 -0.921875 -2.703125q-0.90625 -1.015625 -2.375 -1.015625q-1.359375 0 -2.34375 1.0625q-0.96875 1.046875 -1.0625 2.65625l6.703125 0zm5.881836 -4.84375l2.578125 4.171875l2.671875 -4.171875l1.828125 0l-3.5625 5.46875l4.203125 6.71875l-2.203125 0l-3.078125 -4.9375l-3.1875 4.9375l-1.84375 0l4.09375 -6.3125l-3.6875 -5.875l2.1875 0zm12.888092 0l0 2.703125l-2.671875 0l0 -2.703125l2.671875 0zm0 9.46875l0 2.71875l-2.671875 0l0 -2.71875l2.671875 0z" fill-rule="nonzero"/><path fill="#000000" fill-opacity="0.0" d="m355.5643 115.93044l92.47244 0l0 51.716545l-92.47244 0z" fill-rule="evenodd"/><path fill="#ffffff" d="m388.0412 150.53044l0 -2.9375l5.0625 0l0 -13.5625l-5.078125 3.78125l0 -3.515625l4.46875 -3.21875l3.953125 0l0 16.515625l4.078125 0l0 2.9375l-12.484375 0zm18.243713 0l5.75 -9.0625l-0.15625 -0.109375q-0.53125 0.828125 -1.4375 1.265625q-0.90625 0.421875 -2.03125 0.421875q-1.546875 0 -2.703125 -0.75q-1.15625 -0.75 -1.796875 -2.078125q-0.640625 -1.34375 -0.640625 -3.125q0 -1.921875 0.8125 -3.3125q0.8125 -1.40625 2.28125 -2.1875q1.46875 -0.78125 3.40625 -0.78125q2.0 0 3.46875 0.8125q1.46875 0.8125 2.28125 2.28125q0.8125 1.453125 0.8125 3.4375q0 1.359375 -0.453125 2.890625q-0.453125 1.53125 -1.3125 2.859375l-4.578125 7.4375l-3.703125 0zm3.515625 -10.015625q1.46875 0 2.375 -0.953125q0.90625 -0.953125 0.90625 -2.515625q0 -1.515625 -0.90625 -2.46875q-0.90625 -0.953125 -2.375 -0.953125q-1.46875 0 -2.375 0.953125q-0.90625 0.953125 -0.90625 2.46875q0 1.5625 0.90625 2.515625q0.90625 0.953125 2.375 0.953125z" fill-rule="nonzero"/><path fill="#000000" fill-opacity="0.0" d="m481.04462 115.93044l92.47247 0l0 51.716545l-92.47247 0z" fill-rule="evenodd"/><path fill="#ffffff" d="m507.02466 143.28044l0 -3.09375l8.53125 0l0 3.09375l-8.53125 0zm14.493713 7.25l0 -2.9375l5.0625 0l0 -13.5625l-5.078125 3.78125l0 -3.515625l4.46875 -3.21875l3.953125 0l0 16.515625l4.078125 0l0 2.9375l-12.484375 0zm21.571838 0.265625q-1.890625 0 -3.296875 -0.6875q-1.390625 -0.703125 -2.171875 -1.953125q-0.765625 -1.25 -0.765625 -2.953125l3.359375 0q0 1.296875 0.75 2.03125q0.765625 0.734375 2.15625 0.734375q1.375 0 2.125 -0.734375q0.75 -0.75 0.75 -2.03125l0 -1.515625q0 -1.3125 -0.75 -2.046875q-0.75 -0.734375 -2.125 -0.734375l-2.1875 0l0 -3.015625l4.28125 -3.96875l-7.484375 0l0 -2.84375l10.875 0l0 3.0l-5.484375 5.046875l0 -1.0625q2.875 0 4.546875 1.515625q1.6875 1.515625 1.6875 4.109375l0 1.515625q0 1.703125 -0.78125 2.953125q-0.765625 1.25 -2.1875 1.953125q-1.40625 0.6875 -3.296875 0.6875z" fill-rule="nonzero"/><path fill="#000000" fill-opacity="0.0" d="m606.52496 115.93044l92.47241 0l0 51.716545l-92.47241 0z" fill-rule="evenodd"/><path fill="#ffffff" d="m630.88 150.53044l0 -3.21875l6.078125 -6.109375q1.28125 -1.3125 1.890625 -2.359375q0.609375 -1.046875 0.609375 -2.171875q0 -1.359375 -0.75 -2.109375q-0.734375 -0.765625 -2.015625 -0.765625q-1.421875 0 -2.21875 0.8125q-0.796875 0.8125 -0.796875 2.25l-3.328125 0q0.015625 -1.875 0.796875 -3.21875q0.796875 -1.34375 2.234375 -2.078125q1.4375 -0.75 3.359375 -0.75q1.84375 0 3.203125 0.6875q1.359375 0.6875 2.09375 1.953125q0.75 1.25 0.75 2.984375q0 1.78125 -0.921875 3.46875q-0.90625 1.6875 -2.9375 3.640625l-4.046875 3.96875l8.15625 0l0 3.015625l-12.15625 0zm18.368652 0l5.75 -9.0625l-0.15625 -0.109375q-0.53125 0.828125 -1.4375 1.265625q-0.90625 0.421875 -2.03125 0.421875q-1.546875 0 -2.703125 -0.75q-1.15625 -0.75 -1.796875 -2.078125q-0.640625 -1.34375 -0.640625 -3.125q0 -1.921875 0.8125 -3.3125q0.8125 -1.40625 2.28125 -2.1875q1.46875 -0.78125 3.40625 -0.78125q2.0 0 3.46875 0.8125q1.46875 0.8125 2.28125 2.28125q0.8125 1.453125 0.8125 3.4375q0 1.359375 -0.453125 2.890625q-0.453125 1.53125 -1.3125 2.859375l-4.578125 7.4375l-3.703125 0zm3.515625 -10.015625q1.46875 0 2.375 -0.953125q0.90625 -0.953125 0.90625 -2.515625q0 -1.515625 -0.90625 -2.46875q-0.90625 -0.953125 -2.375 -0.953125q-1.46875 0 -2.375 0.953125q-0.90625 0.953125 -0.90625 2.46875q0 1.5625 0.90625 2.515625q0.90625 0.953125 2.375 0.953125zm15.993713 10.28125q-1.890625 0 -3.28125 -0.71875q-1.390625 -0.71875 -2.15625 -2.015625q-0.75 -1.3125 -0.75 -3.078125l0 -8.375q0 -1.75 0.75 -3.046875q0.765625 -1.3125 2.15625 -2.03125q1.390625 -0.71875 3.28125 -0.71875q1.921875 0 3.28125 0.71875q1.375 0.71875 2.140625 2.03125q0.765625 1.296875 0.765625 3.046875l0 8.375q0 1.765625 -0.765625 3.078125q-0.765625 1.296875 -2.15625 2.015625q-1.375 0.71875 -3.265625 0.71875zm0 -2.875q1.390625 0 2.203125 -0.796875q0.828125 -0.8125 0.828125 -2.140625l0 -8.375q0 -1.328125 -0.828125 -2.125q-0.8125 -0.796875 -2.203125 -0.796875q-1.390625 0 -2.21875 0.796875q-0.828125 0.796875 -0.828125 2.125l0 8.375q0 1.328125 0.828125 2.140625q0.828125 0.796875 2.21875 0.796875zm0 -5.390625q-0.78125 0 -1.28125 -0.5q-0.484375 -0.515625 -0.484375 -1.3125q0 -0.796875 0.484375 -1.265625q0.484375 -0.484375 1.28125 -0.484375q0.796875 0 1.265625 0.484375q0.484375 0.46875 0.484375 1.265625q0 0.796875 -0.484375 1.3125q-0.46875 0.5 -1.265625 0.5z" fill-rule="nonzero"/><path fill="#000000" fill-opacity="0.0" d="m732.00525 115.93044l92.47241 0l0 51.716545l-92.47241 0z" fill-rule="evenodd"/><path fill="#ffffff" d="m778.2134 150.79607q-2.6875 0 -4.3125 -1.34375q-1.625 -1.34375 -1.796875 -3.671875l3.34375 0q0.09375 1.015625 0.796875 1.5625q0.71875 0.546875 1.96875 0.546875q1.390625 0 2.109375 -0.734375q0.71875 -0.734375 0.71875 -2.03125l0 -1.890625q0 -1.34375 -0.71875 -2.046875q-0.71875 -0.703125 -2.109375 -0.703125q-0.84375 0 -1.46875 0.34375q-0.609375 0.34375 -0.921875 0.953125l-3.265625 0l0.140625 -10.703125l10.953125 0l0 3.0l-7.8125 0l-0.046875 5.65625l0.765625 0l-0.796875 0.671875q0 -1.234375 0.96875 -1.9375q0.984375 -0.703125 2.625 -0.703125q2.375 -0.03125 3.6875 1.421875q1.328125 1.453125 1.328125 4.046875l0 1.890625q0 2.640625 -1.640625 4.15625q-1.640625 1.515625 -4.515625 1.515625z" fill-rule="nonzero"/><path fill="#000000" fill-opacity="0.0" d="m857.48553 115.93044l92.47247 0l0 51.716545l-92.47247 0z" fill-rule="evenodd"/><path fill="#ffffff" d="m895.7281 150.79607q-1.953125 0 -3.4375 -0.8125q-1.46875 -0.8125 -2.28125 -2.28125q-0.8125 -1.484375 -0.8125 -3.4375q0 -1.390625 0.46875 -2.90625q0.46875 -1.515625 1.28125 -2.84375l4.59375 -7.4375l3.703125 0l-5.765625 9.0625l0.171875 0.09375q0.53125 -0.8125 1.4375 -1.234375q0.90625 -0.4375 2.03125 -0.4375q1.5625 0 2.703125 0.75q1.15625 0.75 1.796875 2.078125q0.640625 1.328125 0.640625 3.109375q0 1.90625 -0.8125 3.3125q-0.8125 1.40625 -2.265625 2.203125q-1.453125 0.78125 -3.453125 0.78125zm0 -2.828125q1.46875 0 2.375 -0.9375q0.90625 -0.953125 0.90625 -2.46875q0 -1.578125 -0.90625 -2.515625q-0.90625 -0.953125 -2.375 -0.953125q-1.46875 0 -2.375 0.953125q-0.90625 0.9375 -0.90625 2.515625q0 1.515625 0.90625 2.46875q0.90625 0.9375 2.375 0.9375zm18.384338 2.5625l0 -3.859375l-8.65625 0l0 -4.828125l7.484375 -10.765625l3.734375 0l-8.015625 11.640625l0 1.015625l5.453125 0l0 -4.40625l3.34375 0l0 11.203125l-3.34375 0z" fill-rule="nonzero"/><path fill="#000000" fill-opacity="0.0" d="m982.9659 115.93044l92.47247 0l0 51.716545l-92.47247 0z" fill-rule="evenodd"/><path fill="#ffffff" d="m1026.3458 144.74919l-0.046875 -5.328125l2.109375 0q1.328125 0 2.125 -0.71875q0.796875 -0.734375 0.796875 -1.90625q0 -1.1875 -0.796875 -1.890625q-0.796875 -0.71875 -2.15625 -0.71875l-3.96875 0l0 -3.109375l3.8125 0q1.96875 0 3.40625 0.703125q1.4375 0.703125 2.234375 1.984375q0.8125 1.28125 0.8125 3.03125q0 1.625 -0.6875 2.859375q-0.671875 1.21875 -1.875 1.953125q-1.203125 0.71875 -2.796875 0.734375l0 2.40625l-2.96875 0zm1.09375 5.921875q-0.828125 0 -1.34375 -0.5q-0.5 -0.5 -0.5 -1.265625q0 -0.78125 0.5 -1.265625q0.515625 -0.5 1.34375 -0.5l0.796875 0q0.828125 0 1.3125 0.484375q0.5 0.484375 0.5 1.28125q0 0.765625 -0.5 1.265625q-0.5 0.5 -1.328125 0.5l-0.78125 0z" fill-rule="nonzero"/><path fill="#000000" fill-opacity="0.0" d="m1108.4462 115.93044l92.47241 0l0 51.716545l-92.47241 0z" fill-rule="evenodd"/><path fill="#ffffff" d="m1151.8262 144.74919l-0.046875 -5.328125l2.109375 0q1.328125 0 2.125 -0.71875q0.796875 -0.734375 0.796875 -1.90625q0 -1.1875 -0.796875 -1.890625q-0.796875 -0.71875 -2.15625 -0.71875l-3.96875 0l0 -3.109375l3.8125 0q1.96875 0 3.40625 0.703125q1.4375 0.703125 2.234375 1.984375q0.8125 1.28125 0.8125 3.03125q0 1.625 -0.6875 2.859375q-0.671875 1.21875 -1.875 1.953125q-1.203125 0.71875 -2.796875 0.734375l0 2.40625l-2.96875 0zm1.09375 5.921875q-0.828125 0 -1.34375 -0.5q-0.5 -0.5 -0.5 -1.265625q0 -0.78125 0.5 -1.265625q0.515625 -0.5 1.34375 -0.5l0.796875 0q0.828125 0 1.3125 0.484375q0.5 0.484375 0.5 1.28125q0 0.765625 -0.5 1.265625q-0.5 0.5 -1.328125 0.5l-0.78125 0z" fill-rule="nonzero"/><path fill="#000000" fill-opacity="0.0" d="m230.08398 115.93044l92.47244 0l0 51.716545l-92.47244 0z" fill-rule="evenodd"/><path fill="#ffffff" d="m273.464 144.74919l-0.046875 -5.328125l2.109375 0q1.328125 0 2.125 -0.71875q0.796875 -0.734375 0.796875 -1.90625q0 -1.1875 -0.796875 -1.890625q-0.796875 -0.71875 -2.15625 -0.71875l-3.96875 0l0 -3.109375l3.8125 0q1.96875 0 3.40625 0.703125q1.4375 0.703125 2.234375 1.984375q0.8125 1.28125 0.8125 3.03125q0 1.625 -0.6875 2.859375q-0.671875 1.21875 -1.875 1.953125q-1.203125 0.71875 -2.796875 0.734375l0 2.40625l-2.96875 0zm1.09375 5.921875q-0.828125 0 -1.34375 -0.5q-0.5 -0.5 -0.5 -1.265625q0 -0.78125 0.5 -1.265625q0.515625 -0.5 1.34375 -0.5l0.796875 0q0.828125 0 1.3125 0.484375q0.5 0.484375 0.5 1.28125q0 0.765625 -0.5 1.265625q-0.5 0.5 -1.328125 0.5l-0.78125 0z" fill-rule="nonzero"/><path fill="#000000" fill-opacity="0.0" d="m104.603676 115.93044l92.472435 0l0 51.716545l-92.472435 0z" fill-rule="evenodd"/><path fill="#ffffff" d="m147.98367 144.74919l-0.046875 -5.328125l2.109375 0q1.328125 0 2.125 -0.71875q0.796875 -0.734375 0.796875 -1.90625q0 -1.1875 -0.796875 -1.890625q-0.796875 -0.71875 -2.15625 -0.71875l-3.96875 0l0 -3.109375l3.8125 0q1.96875 0 3.40625 0.703125q1.4375 0.703125 2.234375 1.984375q0.8125 1.28125 0.8125 3.03125q0 1.625 -0.6875 2.859375q-0.671875 1.21875 -1.875 1.953125q-1.203125 0.71875 -2.796875 0.734375l0 2.40625l-2.96875 0zm1.09375 5.921875q-0.828125 0 -1.34375 -0.5q-0.5 -0.5 -0.5 -1.265625q0 -0.78125 0.5 -1.265625q0.515625 -0.5 1.34375 -0.5l0.796875 0q0.828125 0 1.3125 0.484375q0.5 0.484375 0.5 1.28125q0 0.765625 -0.5 1.265625q-0.5 0.5 -1.328125 0.5l-0.78125 0z" fill-rule="nonzero"/></g></svg>