<svg version="1.1" viewBox="0.0 0.0 1192.293963254593 560.2440944881889" fill="none" stroke="none" stroke-linecap="square" stroke-miterlimit="10" xmlns:xlink="http://www.w3.org/1999/xlink" xmlns="http://www.w3.org/2000/svg"><clipPath id="p.0"><path d="m0 0l1192.294 0l0 560.2441l-1192.294 0l0 -560.2441z" clip-rule="nonzero"/></clipPath><g clip-path="url(#p.0)"><path fill="#000000" fill-opacity="0.0" d="m0 0l1192.294 0l0 560.2441l-1192.294 0z" fill-rule="evenodd"/><path fill="#ffd091" d="m34.457798 250.21701l0 0c0 -32.33693 26.214256 -58.551178 58.55118 -58.551178l80.97637 0l0 0c15.528748 0 30.421463 6.168762 41.401947 17.149246c10.980469 10.980469 17.149246 25.8732 17.149246 41.40193l0 0l0 0c0 32.336914 -26.214264 58.551178 -58.551193 58.551178l-80.97637 0c-32.336926 0 -58.55118 -26.214264 -58.55118 -58.551178z" fill-rule="evenodd"/><path stroke="#ffddbe" stroke-width="4.0" stroke-linejoin="round" stroke-linecap="butt" d="m34.457798 250.21701l0 0c0 -32.33693 26.214256 -58.551178 58.55118 -58.551178l80.97637 0l0 0c15.528748 0 30.421463 6.168762 41.401947 17.149246c10.980469 10.980469 17.149246 25.8732 17.149246 41.40193l0 0l0 0c0 32.336914 -26.214264 58.551178 -58.551193 58.551178l-80.97637 0c-32.336926 0 -58.55118 -26.214264 -58.55118 -58.551178z" fill-rule="evenodd"/><path fill="#000000" d="m89.55046 242.28825l0 1.78125l-8.34375 0l0 5.234375l6.625 0l0 1.65625l-6.625 0l0 6.0156403l8.59375 0l0 1.78125l-10.65625 0l0 -16.468765l10.40625 0zm8.252457 3.96875q1.859375 0 2.9375 1.203125q1.09375 1.1875 1.09375 3.234375l0 8.062515l-1.859375 0l0 -8.35939q0 -0.8125 -0.3125 -1.375q-0.3125 -0.5625 -0.875 -0.859375q-0.5625 -0.296875 -1.234375 -0.296875q-0.96875 0 -1.78125 0.546875q-0.796875 0.53125 -1.25 1.5q-0.453125 0.953125 -0.453125 2.203125l0 6.6406403l-1.875 0l0 -12.187515l1.78125 0l0 2.25l0.046875 0q0.578125 -1.21875 1.5625 -1.890625q1.0 -0.671875 2.21875 -0.671875zm9.803711 0.21875l2.703125 0l0 1.484375l-2.703125 0l0 7.4375q0 1.1093903 0.4375 1.6093903q0.4375 0.484375 1.453125 0.484375q0.40625 0 0.78125 -0.046875q0.375 -0.0625 0.703125 -0.078125l0 1.484375l-1.84375 0.140625q-1.75 0 -2.578125 -0.9375q-0.828125 -0.953125 -0.828125 -2.9218903l0 -7.171875l-2.15625 0l0 -1.484375l2.15625 0l0 -3.03125l1.875 -0.1875l0 3.21875zm10.101852 -0.21875q2.4375 0 3.875 1.703125q1.453125 1.703125 1.453125 4.578125l0 0.265625l-8.859375 0l0 0.296875q0 1.390625 0.46875 2.34375q0.46875 0.93751526 1.28125 1.4531403q0.8125 0.515625 1.890625 0.515625q1.203125 0 2.03125 -0.625q0.828125 -0.640625 1.21875 -1.7343903l1.765625 0.359375q-0.546875 1.6406403 -1.9375 2.6093903q-1.390625 0.96875 -3.234375 0.96875q-2.5 0 -4.046875 -1.734375q-1.546875 -1.7343903 -1.546875 -4.5937653q0 -1.796875 0.703125 -3.265625q0.703125 -1.484375 2.0 -2.3125q1.296875 -0.828125 2.9375 -0.828125zm3.265625 5.15625q0 -1.703125 -0.921875 -2.703125q-0.90625 -1.015625 -2.375 -1.015625q-1.359375 0 -2.34375 1.0625q-0.96875 1.046875 -1.0625 2.65625l6.703125 0zm10.178711 -5.1875l0.71875 0.046875l0 1.796875l-0.421875 0q-1.625 0 -2.671875 1.265625q-1.046875 1.265625 -1.046875 3.109375l0 6.3125153l-1.859375 0l0 -12.187515l1.671875 0l0 2.84375l0.046875 0q1.109375 -3.1875 3.5625 -3.1875zm11.942459 -3.9375l0 14.64064l7.65625 0l0 1.828125l-9.71875 0l0 -16.468765l2.0625 0zm14.5155945 3.96875q1.5625 0 2.78125 0.8125q1.234375 0.796875 1.90625 2.25q0.671875 1.453125 0.671875 3.265625q0 1.859375 -0.71875 3.328125q-0.703125 1.4531403 -2.0 2.2656403q-1.296875 0.8125 -2.953125 0.8125q-2.375 0 -3.828125 -1.765625q-1.4375 -1.7812653 -1.4375 -4.6562653q0 -2.8125 1.546875 -4.5625q1.546875 -1.75 4.03125 -1.75zm-3.5 6.3125q0 2.328125 0.875 3.6093903q0.875 1.265625 2.484375 1.265625q1.609375 0 2.5 -1.28125q0.90625 -1.2968903 0.90625 -3.5937653q0 -2.265625 -0.90625 -3.515625q-0.890625 -1.265625 -2.515625 -1.265625q-1.546875 0 -2.453125 1.234375q-0.890625 1.234375 -0.890625 3.546875zm16.45996 -6.3125q1.5625 0 2.78125 0.8125q1.234375 0.796875 1.90625 2.25q0.671875 1.453125 0.671875 3.265625q0 1.859375 -0.71875 3.328125q-0.703125 1.4531403 -2.0 2.2656403q-1.296875 0.8125 -2.953125 0.8125q-2.375 0 -3.828125 -1.765625q-1.4375 -1.7812653 -1.4375 -4.6562653q0 -2.8125 1.546875 -4.5625q1.546875 -1.75 4.03125 -1.75zm-3.5 6.3125q0 2.328125 0.875 3.6093903q0.875 1.265625 2.484375 1.265625q1.609375 0 2.5 -1.28125q0.90625 -1.2968903 0.90625 -3.5937653q0 -2.265625 -0.90625 -3.515625q-0.890625 -1.265625 -2.515625 -1.265625q-1.546875 0 -2.453125 1.234375q-0.890625 1.234375 -0.890625 3.546875zm17.256836 -6.3125q1.421875 0 2.515625 0.8125q1.109375 0.796875 1.703125 2.25q0.609375 1.453125 0.609375 3.25q0 1.921875 -0.625 3.390625q-0.625 1.4531403 -1.71875 2.2500153q-1.09375 0.78125 -2.484375 0.78125q-1.171875 0 -2.078125 -0.515625q-0.890625 -0.53125 -1.5625 -1.640625l0 5.90625l-1.875 0l0 -16.17189l1.703125 0l0 2.34375l0.046875 0q0.5 -1.265625 1.46875 -1.953125q0.984375 -0.703125 2.296875 -0.703125zm2.71875 6.5q0 -2.28125 -0.828125 -3.5625q-0.828125 -1.28125 -2.328125 -1.28125q-1.09375 0 -1.96875 0.8125q-0.875 0.8125 -1.234375 2.15625l0 2.625q0 1.65625 0.921875 2.7812653q0.921875 1.125 2.234375 1.125q1.03125 0 1.765625 -0.5625q0.734375 -0.5625 1.078125 -1.6093903q0.359375 -1.0625 0.359375 -2.484375z" fill-rule="nonzero"/><path fill="#c9daf8" d="m490.77618 256.18466l16.273468 -57.228333l165.53183 0l16.273438 57.228333l-16.273438 57.228302l-165.53183 0z" fill-rule="evenodd"/><path stroke="#cfe2f3" stroke-width="4.0" stroke-linejoin="round" stroke-linecap="butt" d="m490.77618 256.18466l16.273468 -57.228333l165.53183 0l16.273438 57.228333l-16.273438 57.228302l-165.53183 0z" fill-rule="evenodd"/><path fill="#000000" d="m549.37695 219.02153q2.296875 0 3.8125 1.21875q1.53125 1.203125 2.140625 3.515625l-1.953125 0.46875q-0.359375 -1.625 -1.484375 -2.546875q-1.125 -0.921875 -2.65625 -0.921875q-2.234375 0 -3.5 1.828125q-1.25 1.8125 -1.25 4.984375q0 2.078125 0.5625 3.59375q0.578125 1.515625 1.671875 2.328125q1.09375 0.796875 2.5625 0.796875q1.078125 0 2.015625 -0.453125q0.953125 -0.46875 1.515625 -1.421875q0.5625 -0.953125 0.5625 -2.734375l0 -0.53125l-4.09375 0l0 -1.71875l6.21875 0l0 8.421875l-1.28125 0l-0.546875 -2.046875q-0.703125 1.03125 -1.890625 1.59375q-1.1875 0.5625 -2.765625 0.5625q-1.953125 0 -3.484375 -1.015625q-1.53125 -1.015625 -2.40625 -2.9375q-0.875 -1.921875 -0.875 -4.34375q0 -2.5 0.875 -4.46875q0.890625 -1.984375 2.515625 -3.078125q1.640625 -1.09375 3.734375 -1.09375zm14.152466 4.203125q1.5625 0 2.78125 0.8125q1.234375 0.796875 1.90625 2.25q0.671875 1.453125 0.671875 3.265625q0 1.859375 -0.71875 3.328125q-0.703125 1.453125 -2.0 2.265625q-1.296875 0.8125 -2.953125 0.8125q-2.375 0 -3.828125 -1.765625q-1.4375 -1.78125 -1.4375 -4.65625q0 -2.8125 1.546875 -4.5625q1.546875 -1.75 4.03125 -1.75zm-3.5 6.3125q0 2.328125 0.875 3.609375q0.875 1.265625 2.484375 1.265625q1.609375 0 2.5 -1.28125q0.90625 -1.296875 0.90625 -3.59375q0 -2.265625 -0.90625 -3.515625q-0.890625 -1.265625 -2.515625 -1.265625q-1.546875 0 -2.453125 1.234375q-0.890625 1.234375 -0.890625 3.546875zm21.175537 -6.09375l2.703125 0l0 1.484375l-2.703125 0l0 7.4375q0 1.109375 0.4375 1.609375q0.4375 0.484375 1.453125 0.484375q0.40625 0 0.78125 -0.046875q0.375 -0.0625 0.703125 -0.078125l0 1.484375l-1.84375 0.140625q-1.75 0 -2.578125 -0.9375q-0.828125 -0.953125 -0.828125 -2.921875l0 -7.171875l-2.15625 0l0 -1.484375l2.15625 0l0 -3.03125l1.875 -0.1875l0 3.21875zm10.164368 -0.21875q1.5625 0 2.78125 0.8125q1.234375 0.796875 1.90625 2.25q0.671875 1.453125 0.671875 3.265625q0 1.859375 -0.71875 3.328125q-0.703125 1.453125 -2.0 2.265625q-1.296875 0.8125 -2.953125 0.8125q-2.375 0 -3.828125 -1.765625q-1.4375 -1.78125 -1.4375 -4.65625q0 -2.8125 1.546875 -4.5625q1.546875 -1.75 4.03125 -1.75zm-3.5 6.3125q0 2.328125 0.875 3.609375q0.875 1.265625 2.484375 1.265625q1.609375 0 2.5 -1.28125q0.90625 -1.296875 0.90625 -3.59375q0 -2.265625 -0.90625 -3.515625q-0.890625 -1.265625 -2.515625 -1.265625q-1.546875 0 -2.453125 1.234375q-0.890625 1.234375 -0.890625 3.546875zm21.175598 -6.09375l2.703125 0l0 1.484375l-2.703125 0l0 7.4375q0 1.109375 0.4375 1.609375q0.4375 0.484375 1.453125 0.484375q0.40625 0 0.78125 -0.046875q0.375 -0.0625 0.703125 -0.078125l0 1.484375l-1.84375 0.140625q-1.75 0 -2.578125 -0.9375q-0.828125 -0.953125 -0.828125 -2.921875l0 -7.171875l-2.15625 0l0 -1.484375l2.15625 0l0 -3.03125l1.875 -0.1875l0 3.21875zm7.1174316 -4.1875l0 6.53125l0.078125 0q0.640625 -1.34375 1.546875 -1.953125q0.921875 -0.609375 2.25 -0.609375q1.71875 0 2.78125 1.171875q1.078125 1.15625 1.078125 3.046875l0 8.28125l-1.875 0l0 -7.4375q0 -1.34375 -0.265625 -2.078125q-0.265625 -0.734375 -0.828125 -1.09375q-0.5625 -0.359375 -1.375 -0.359375q-0.84375 0 -1.65625 0.5625q-0.796875 0.546875 -1.265625 1.484375q-0.46875 0.9375 -0.46875 2.15625l0 6.765625l-1.859375 0l0 -16.46875l1.859375 0zm15.944336 3.96875q2.4375 0 3.875 1.703125q1.453125 1.703125 1.453125 4.578125l0 0.265625l-8.859375 0l0 0.296875q0 1.390625 0.46875 2.34375q0.46875 0.9375 1.28125 1.453125q0.8125 0.515625 1.890625 0.515625q1.203125 0 2.03125 -0.625q0.828125 -0.640625 1.21875 -1.734375l1.765625 0.359375q-0.546875 1.640625 -1.9375 2.609375q-1.390625 0.96875 -3.234375 0.96875q-2.5 0 -4.046875 -1.734375q-1.546875 -1.734375 -1.546875 -4.59375q0 -1.796875 0.703125 -3.265625q0.703125 -1.484375 2.0 -2.3125q1.296875 -0.828125 2.9375 -0.828125zm3.265625 5.15625q0 -1.703125 -0.921875 -2.703125q-0.90625 -1.015625 -2.375 -1.015625q-1.359375 0 -2.34375 1.0625q-0.96875 1.046875 -1.0625 2.65625l6.703125 0z" fill-rule="nonzero"/><path fill="#000000" d="m549.0813 252.22466q1.859375 0 2.9375 1.203125q1.09375 1.1875 1.09375 3.2343597l0 8.0625l-1.859375 0l0 -8.359375q0 -0.81248474 -0.3125 -1.3749847q-0.3125 -0.5625 -0.875 -0.859375q-0.5625 -0.296875 -1.234375 -0.296875q-0.96875 0 -1.78125 0.546875q-0.796875 0.53125 -1.25 1.5q-0.453125 0.95310974 -0.453125 2.2031097l0 6.640625l-1.875 0l0 -12.187485l1.78125 0l0 2.25l0.046875 0q0.578125 -1.21875 1.5625 -1.890625q1.0 -0.671875 2.21875 -0.671875zm12.225586 0q2.4375 0 3.875 1.703125q1.453125 1.703125 1.453125 4.5781097l0 0.265625l-8.859375 0l0 0.296875q0 1.390625 0.46875 2.34375q0.46875 0.9375 1.28125 1.453125q0.8125 0.515625 1.890625 0.515625q1.203125 0 2.03125 -0.625q0.828125 -0.640625 1.21875 -1.734375l1.765625 0.359375q-0.546875 1.640625 -1.9375 2.609375q-1.390625 0.96875 -3.234375 0.96875q-2.5 0 -4.046875 -1.734375q-1.546875 -1.734375 -1.546875 -4.59375q0 -1.796875 0.703125 -3.2656097q0.703125 -1.484375 2.0 -2.3125q1.296875 -0.828125 2.9375 -0.828125zm3.265625 5.1562347q0 -1.7031097 -0.921875 -2.7031097q-0.90625 -1.015625 -2.375 -1.015625q-1.359375 0 -2.34375 1.0625q-0.96875 1.046875 -1.0625 2.6562347l6.703125 0zm5.881836 -4.8437347l2.578125 4.1718597l2.671875 -4.1718597l1.828186 0l-3.562561 5.4687347l4.203186 6.71875l-2.203186 0l-3.078125 -4.9375l-3.1875 4.9375l-1.84375 0l4.09375 -6.3125l-3.6875 -5.8749847l2.1875 0zm11.950623 -0.09375l2.703125 0l0 1.484375l-2.703125 0l0 7.4374847q0 1.109375 0.4375 1.609375q0.4375 0.484375 1.453125 0.484375q0.40625 0 0.78125 -0.046875q0.375 -0.0625 0.703125 -0.078125l0 1.484375l-1.84375 0.140625q-1.75 0 -2.578125 -0.9375q-0.828125 -0.953125 -0.828125 -2.921875l0 -7.1718597l-2.15625 0l0 -1.484375l2.15625 0l0 -3.03125l1.875 -0.1875l0 3.21875zm14.583069 -4.1875l0 16.468735l-1.875 0l0 -16.468735l1.875 0zm8.54126 3.96875q1.5625 0 2.78125 0.8125q1.234375 0.796875 1.90625 2.25q0.671875 1.4531097 0.671875 3.2656097q0 1.859375 -0.71875 3.328125q-0.703125 1.453125 -2.0 2.265625q-1.296875 0.8125 -2.953125 0.8125q-2.375 0 -3.828125 -1.765625q-1.4375 -1.78125 -1.4375 -4.65625q0 -2.8124847 1.546875 -4.5624847q1.546875 -1.75 4.03125 -1.75zm-3.5 6.3124847q0 2.328125 0.875 3.609375q0.875 1.265625 2.484375 1.265625q1.609375 0 2.5 -1.28125q0.90625 -1.296875 0.90625 -3.59375q0 -2.265625 -0.90625 -3.5156097q-0.890625 -1.265625 -2.515625 -1.265625q-1.546875 0 -2.453125 1.234375q-0.890625 1.2343597 -0.890625 3.5468597zm16.45996 -6.3124847q1.5625 0 2.78125 0.8125q1.234375 0.796875 1.90625 2.25q0.671875 1.4531097 0.671875 3.2656097q0 1.859375 -0.71875 3.328125q-0.703125 1.453125 -2.0 2.265625q-1.296875 0.8125 -2.953125 0.8125q-2.375 0 -3.828125 -1.765625q-1.4375 -1.78125 -1.4375 -4.65625q0 -2.8124847 1.546875 -4.5624847q1.546875 -1.75 4.03125 -1.75zm-3.5 6.3124847q0 2.328125 0.875 3.609375q0.875 1.265625 2.484375 1.265625q1.609375 0 2.5 -1.28125q0.90625 -1.296875 0.90625 -3.59375q0 -2.265625 -0.90625 -3.5156097q-0.890625 -1.265625 -2.515625 -1.265625q-1.546875 0 -2.453125 1.234375q-0.890625 1.2343597 -0.890625 3.5468597zm17.256836 -6.3124847q1.421875 0 2.515625 0.8125q1.109375 0.796875 1.703125 2.25q0.609375 1.4531097 0.609375 3.2499847q0 1.921875 -0.625 3.390625q-0.625 1.453125 -1.71875 2.25q-1.09375 0.78125 -2.484375 0.78125q-1.171875 0 -2.078125 -0.515625q-0.890625 -0.53125 -1.5625 -1.640625l0 5.90625l-1.875 0l0 -16.17186l1.703125 0l0 2.34375l0.046875 0q0.5 -1.265625 1.46875 -1.953125q0.984375 -0.703125 2.296875 -0.703125zm2.71875 6.4999847q0 -2.28125 -0.828125 -3.5624847q-0.828125 -1.28125 -2.328125 -1.28125q-1.09375 0 -1.96875 0.8125q-0.875 0.8125 -1.234375 2.1562347l0 2.625q0 1.65625 0.921875 2.78125q0.921875 1.125 2.234375 1.125q1.03125 0 1.765625 -0.5625q0.734375 -0.5625 1.078125 -1.609375q0.359375 -1.0625 0.359375 -2.484375z" fill-rule="nonzero"/><path fill="#000000" d="m544.04193 277.2559l0 2.109375l-2.0625 0l0 -2.109375l2.0625 0zm-0.09375 4.28125l0 12.1875l-1.875 0l0 -12.1875l1.875 0zm6.056885 -0.09375l2.703125 0l0 1.484375l-2.703125 0l0 7.4375q0 1.109375 0.4375 1.609375q0.4375 0.484375 1.453125 0.484375q0.40625 0 0.78125 -0.046875q0.375 -0.0625 0.703125 -0.078125l0 1.484375l-1.84375 0.140625q-1.75 0 -2.578125 -0.9375q-0.828125 -0.953125 -0.828125 -2.921875l0 -7.171875l-2.15625 0l0 -1.484375l2.15625 0l0 -3.03125l1.875 -0.1875l0 3.21875zm10.101868 -0.21875q2.4375 0 3.875 1.703125q1.453125 1.703125 1.453125 4.578125l0 0.265625l-8.859375 0l0 0.296875q0 1.390625 0.46875 2.34375q0.46875 0.9375 1.28125 1.453125q0.8125 0.515625 1.890625 0.515625q1.203125 0 2.03125 -0.625q0.828125 -0.640625 1.21875 -1.734375l1.765625 0.359375q-0.546875 1.640625 -1.9375 2.609375q-1.390625 0.96875 -3.234375 0.96875q-2.5 0 -4.046875 -1.734375q-1.546875 -1.734375 -1.546875 -4.59375q0 -1.796875 0.703125 -3.265625q0.703125 -1.484375 2.0 -2.3125q1.296875 -0.828125 2.9375 -0.828125zm3.265625 5.15625q0 -1.703125 -0.921875 -2.703125q-0.90625 -1.015625 -2.375 -1.015625q-1.359375 0 -2.34375 1.0625q-0.96875 1.046875 -1.0625 2.65625l6.703125 0zm10.178711 -5.1875l0.71875 0.046875l0 1.796875l-0.421875 0q-1.625 0 -2.671875 1.265625q-1.046875 1.265625 -1.046875 3.109375l0 6.3125l-1.859375 0l0 -12.1875l1.671875 0l0 2.84375l0.046875 0q1.109375 -3.1875 3.5625 -3.1875zm7.1643677 0.03125q1.6875 0 2.671875 0.4375q0.984375 0.421875 1.53125 1.40625q0.546875 0.984375 0.546875 3.046875l0 5.203125q0 1.546875 0.265625 2.40625l-1.875 0l-0.203125 -2.28125q-1.25 2.515625 -4.28125 2.515625q-1.921875 0 -3.093811 -1.0q-1.15625 -1.015625 -1.15625 -2.6875q0 -0.96875 0.484375 -1.78125q0.484375 -0.8125 1.265686 -1.328125q0.796875 -0.515625 2.03125 -0.75q1.234375 -0.25 3.0625 -0.25l1.6875 0l0 -0.59375q0 -1.515625 -0.734375 -2.203125q-0.734375 -0.6875 -2.359375 -0.6875q-2.9375 0 -3.34375 2.171875l-1.750061 -0.296875q0.1875 -1.53125 1.593811 -2.421875q1.421875 -0.90625 3.65625 -0.90625zm-3.578125 9.140625q0 0.984375 0.71875 1.5625q0.734375 0.578125 1.921875 0.578125q1.078125 0 1.96875 -0.53125q0.890625 -0.546875 1.390625 -1.5q0.515625 -0.96875 0.515625 -2.109375l0 -0.78125l-1.75 0q-2.328125 0 -3.546875 0.703125q-1.21875 0.703125 -1.21875 2.078125zm14.147461 -8.921875l2.703125 0l0 1.484375l-2.703125 0l0 7.4375q0 1.109375 0.4375 1.609375q0.4375 0.484375 1.453125 0.484375q0.40625 0 0.78125 -0.046875q0.375 -0.0625 0.703125 -0.078125l0 1.484375l-1.84375 0.140625q-1.75 0 -2.578125 -0.9375q-0.828125 -0.953125 -0.828125 -2.921875l0 -7.171875l-2.15625 0l0 -1.484375l2.15625 0l0 -3.03125l1.875 -0.1875l0 3.21875zm7.4768066 -4.1875l0 2.109375l-2.0625 0l0 -2.109375l2.0625 0zm-0.09375 4.28125l0 12.1875l-1.875 0l0 -12.1875l1.875 0zm8.54126 -0.3125q1.5625 0 2.78125 0.8125q1.234375 0.796875 1.90625 2.25q0.671875 1.453125 0.671875 3.265625q0 1.859375 -0.71875 3.328125q-0.703125 1.453125 -2.0 2.265625q-1.296875 0.8125 -2.953125 0.8125q-2.375 0 -3.828125 -1.765625q-1.4375 -1.78125 -1.4375 -4.65625q0 -2.8125 1.546875 -4.5625q1.546875 -1.75 4.03125 -1.75zm-3.5 6.3125q0 2.328125 0.875 3.609375q0.875 1.265625 2.484375 1.265625q1.609375 0 2.5 -1.28125q0.90625 -1.296875 0.90625 -3.59375q0 -2.265625 -0.90625 -3.515625q-0.890625 -1.265625 -2.515625 -1.265625q-1.546875 0 -2.453125 1.234375q-0.890625 1.234375 -0.890625 3.546875zm17.131836 -6.3125q1.859375 0 2.9375 1.203125q1.09375 1.1875 1.09375 3.234375l0 8.0625l-1.859375 0l0 -8.359375q0 -0.8125 -0.3125 -1.375q-0.3125 -0.5625 -0.875 -0.859375q-0.5625 -0.296875 -1.234375 -0.296875q-0.96875 0 -1.78125 0.546875q-0.796875 0.53125 -1.25 1.5q-0.453125 0.953125 -0.453125 2.203125l0 6.640625l-1.875 0l0 -12.1875l1.78125 0l0 2.25l0.046875 0q0.578125 -1.21875 1.5625 -1.890625q1.0 -0.671875 2.21875 -0.671875zm12.413086 -4.203125q1.53125 0 2.78125 0.609375q1.25 0.59375 1.921875 1.640625q0.671875 1.03125 0.671875 2.375q0 1.453125 -0.765625 2.5q-0.765625 1.03125 -2.40625 1.875q-1.171875 0.59375 -1.515625 0.984375q-0.34375 0.375 -0.34375 1.109375l0 1.53125l-1.734375 0l0 -1.578125q0 -1.109375 0.375 -1.78125q0.390625 -0.671875 1.15625 -1.109375q1.5 -0.8125 2.015625 -1.25q0.53125 -0.453125 0.796875 -0.984375q0.28125 -0.546875 0.28125 -1.265625q0 -1.296875 -0.9375 -2.125q-0.921875 -0.828125 -2.4375 -0.828125q-1.46875 0 -2.4375 0.90625q-0.96875 0.890625 -1.265625 2.625l-1.796875 -0.390625q0.359375 -2.296875 1.828125 -3.5625q1.484375 -1.28125 3.8125 -1.28125zm0.765625 14.34375l0 2.359375l-2.4375 0l0 -2.359375l2.4375 0z" fill-rule="nonzero"/><path fill="#d1f8c3" d="m262.6178 197.63428l198.07874 0l0 117.102356l-198.07874 0z" fill-rule="evenodd"/><path stroke="#d9ead3" stroke-width="4.0" stroke-linejoin="round" stroke-linecap="butt" d="m262.6178 197.63428l198.07874 0l0 117.102356l-198.07874 0z" fill-rule="evenodd"/><path fill="#000000" d="m303.57486 248.02232q2.140625 0 3.65625 1.046875q1.53125 1.046875 2.203125 2.984375l-1.875 0.5q-0.234375 -1.25 -1.421875 -2.078125q-1.1875 -0.828125 -2.609375 -0.828125q-1.46875 0 -2.5 0.765625q-1.03125 0.75 -1.03125 1.859375q0 0.90625 0.53125 1.53125q0.53125 0.609375 1.53125 0.84375l4.28125 1.078125q1.703125 0.43751526 2.671875 1.5781403q0.96875 1.140625 0.96875 2.71875q0 1.46875 -0.734375 2.59375q-0.71875 1.125 -2.125 1.734375q-1.390625 0.609375 -3.28125 0.609375q-2.515625 0 -4.1875 -1.140625q-1.671875 -1.140625 -2.484375 -3.53125l1.84375 -0.40625q0.4375 1.5625 1.71875 2.453125q1.28125 0.875 3.15625 0.875q1.84375 0 2.90625 -0.78125q1.0625 -0.78125 1.0625 -2.140625q0 -2.015625 -2.71875 -2.671875l-3.453125 -0.828125q-1.734375 -0.421875 -2.71875 -1.5468903q-0.984375 -1.125 -0.984375 -2.6875q0 -2.0625 1.515625 -3.296875q1.53125 -1.234375 4.078125 -1.234375zm11.551819 4.421875l2.703125 0l0 1.484375l-2.703125 0l0 7.4375153q0 1.109375 0.4375 1.609375q0.4375 0.484375 1.453125 0.484375q0.40625 0 0.78125 -0.046875q0.375 -0.0625 0.703125 -0.078125l0 1.484375l-1.84375 0.140625q-1.75 0 -2.578125 -0.9375q-0.828125 -0.953125 -0.828125 -2.921875l0 -7.1718903l-2.15625 0l0 -1.484375l2.15625 0l0 -3.03125l1.875 -0.1875l0 3.21875zm10.070618 -0.21875q1.6875 0 2.671875 0.4375q0.984375 0.421875 1.53125 1.40625q0.546875 0.984375 0.546875 3.0468903l0 5.203125q0 1.546875 0.265625 2.40625l-1.875 0l-0.203125 -2.28125q-1.25 2.515625 -4.28125 2.515625q-1.921875 0 -3.09375 -1.0q-1.15625 -1.015625 -1.15625 -2.6875q0 -0.96875 0.484375 -1.78125q0.484375 -0.8125 1.265625 -1.328125q0.796875 -0.515625 2.03125 -0.75q1.234375 -0.25 3.0625 -0.25l1.6875 0l0 -0.59375q0 -1.5156403 -0.734375 -2.2031403q-0.734375 -0.6875 -2.359375 -0.6875q-2.9375 0 -3.34375 2.171875l-1.75 -0.296875q0.1875 -1.53125 1.59375 -2.421875q1.421875 -0.90625 3.65625 -0.90625zm-3.578125 9.14064q0 0.984375 0.71875 1.5625q0.734375 0.578125 1.921875 0.578125q1.078125 0 1.96875 -0.53125q0.890625 -0.546875 1.390625 -1.5q0.515625 -0.96875 0.515625 -2.109375l0 -0.78125l-1.75 0q-2.328125 0 -3.546875 0.703125q-1.21875 0.703125 -1.21875 2.078125zm14.147461 -8.92189l2.703125 0l0 1.484375l-2.703125 0l0 7.4375153q0 1.109375 0.4375 1.609375q0.4375 0.484375 1.453125 0.484375q0.40625 0 0.78125 -0.046875q0.375 -0.0625 0.703125 -0.078125l0 1.484375l-1.84375 0.140625q-1.75 0 -2.578125 -0.9375q-0.828125 -0.953125 -0.828125 -2.921875l0 -7.1718903l-2.15625 0l0 -1.484375l2.15625 0l0 -3.03125l1.875 -0.1875l0 3.21875zm10.101837 -0.21875q2.4375 0 3.875 1.703125q1.453125 1.703125 1.453125 4.5781403l0 0.265625l-8.859375 0l0 0.296875q0 1.390625 0.46875 2.34375q0.46875 0.9375 1.28125 1.453125q0.8125 0.515625 1.890625 0.515625q1.203125 0 2.03125 -0.625q0.828125 -0.640625 1.21875 -1.734375l1.765625 0.359375q-0.546875 1.640625 -1.9375 2.609375q-1.390625 0.96875 -3.234375 0.96875q-2.5 0 -4.046875 -1.734375q-1.546875 -1.734375 -1.546875 -4.59375q0 -1.796875 0.703125 -3.2656403q0.703125 -1.484375 2.0 -2.3125q1.296875 -0.828125 2.9375 -0.828125zm3.265625 5.1562653q0 -1.7031403 -0.921875 -2.7031403q-0.90625 -1.015625 -2.375 -1.015625q-1.359375 0 -2.34375 1.0625q-0.96875 1.046875 -1.0625 2.6562653l6.703125 0zm10.194336 -5.1562653q1.296875 0 2.203125 0.765625q0.921875 0.765625 1.234375 2.140625q0.546875 -1.390625 1.578125 -2.140625q1.03125 -0.765625 2.359375 -0.765625q1.125 0 2.015625 0.640625q0.90625 0.625 1.265625 1.546875q0.359375 0.921875 0.359375 2.7031403l0 7.609375l-1.875 0l0 -8.046875q0 -0.98439026 -0.328125 -1.6250153q-0.3125 -0.640625 -0.84375 -0.96875q-0.53125 -0.328125 -1.203125 -0.328125q-0.734375 0 -1.46875 0.484375q-0.71875 0.46875 -1.140625 1.3125q-0.40625 0.84376526 -0.40625 2.0000153l0 7.171875l-1.875 0l0 -8.0625q0 -1.3281403 -0.703125 -2.1093903q-0.6875 -0.796875 -1.75 -0.796875q-0.734375 0 -1.421875 0.46875q-0.6875 0.46875 -1.109375 1.3125q-0.421875 0.82814026 -0.421875 1.9843903l0 7.203125l-1.875 0l0 -12.187515l1.71875 0l0 2.34375l0.046875 0q0.546875 -1.25 1.53125 -1.953125q0.984375 -0.703125 2.109375 -0.703125zm19.179962 0q2.4375 0 3.875 1.703125q1.453125 1.703125 1.453125 4.5781403l0 0.265625l-8.859375 0l0 0.296875q0 1.390625 0.46875 2.34375q0.46875 0.9375 1.28125 1.453125q0.8125 0.515625 1.890625 0.515625q1.203125 0 2.03125 -0.625q0.828125 -0.640625 1.21875 -1.734375l1.765625 0.359375q-0.546875 1.640625 -1.9375 2.609375q-1.390625 0.96875 -3.234375 0.96875q-2.5 0 -4.046875 -1.734375q-1.546875 -1.734375 -1.546875 -4.59375q0 -1.796875 0.703125 -3.2656403q0.703125 -1.484375 2.0 -2.3125q1.296875 -0.828125 2.9375 -0.828125zm3.265625 5.1562653q0 -1.7031403 -0.921875 -2.7031403q-0.90625 -1.015625 -2.375 -1.015625q-1.359375 0 -2.34375 1.0625q-0.96875 1.046875 -1.0625 2.6562653l6.703125 0zm10.428711 -5.1562653q1.859375 0 2.9375 1.203125q1.09375 1.1875 1.09375 3.2343903l0 8.0625l-1.859375 0l0 -8.359375q0 -0.81251526 -0.3125 -1.3750153q-0.3125 -0.5625 -0.875 -0.859375q-0.5625 -0.296875 -1.234375 -0.296875q-0.96875 0 -1.78125 0.546875q-0.796875 0.53125 -1.25 1.5q-0.453125 0.95314026 -0.453125 2.2031403l0 6.640625l-1.875 0l0 -12.187515l1.78125 0l0 2.25l0.046875 0q0.578125 -1.21875 1.5625 -1.890625q1.0 -0.671875 2.21875 -0.671875zm9.803711 0.21875l2.703125 0l0 1.484375l-2.703125 0l0 7.4375153q0 1.109375 0.4375 1.609375q0.4375 0.484375 1.453125 0.484375q0.40625 0 0.78125 -0.046875q0.375 -0.0625 0.703125 -0.078125l0 1.484375l-1.84375 0.140625q-1.75 0 -2.578125 -0.9375q-0.828125 -0.953125 -0.828125 -2.921875l0 -7.1718903l-2.15625 0l0 -1.484375l2.15625 0l0 -3.03125l1.875 -0.1875l0 3.21875zm19.504944 -4.1875l0 14.95314l4.609375 0l0 1.515625l-11.515625 0l0 -1.515625l4.921875 0l0 -12.45314q-2.1875 2.3125 -4.546875 3.5l0 -2.03125q3.21875 -1.65625 5.046875 -3.96875l1.484375 0z" fill-rule="nonzero"/><path fill="#d1f8c3" d="m490.77646 38.925198l198.07877 0l0 117.102356l-198.07877 0z" fill-rule="evenodd"/><path stroke="#d9ead3" stroke-width="4.0" stroke-linejoin="round" stroke-linecap="butt" d="m490.77646 38.925198l198.07877 0l0 117.102356l-198.07877 0z" fill-rule="evenodd"/><path fill="#000000" d="m532.31287 106.25075q-1.578125 0 -2.765625 -0.59375q-1.1875 -0.59375 -1.84375 -1.734375q-0.640625 -1.140625 -0.640625 -2.703125l0 -3.609375q0 -1.578125 0.640625 -2.703125q0.65625 -1.125 1.84375 -1.71875q1.1875 -0.609375 2.765625 -0.609375q2.28125 0 3.671875 1.234375q1.390625 1.21875 1.46875 3.328125l-2.171875 0q-0.0625 -1.28125 -0.84375 -1.953125q-0.78125 -0.6875 -2.125 -0.6875q-1.421875 0 -2.265625 0.8125q-0.828125 0.796875 -0.828125 2.28125l0 3.625q0 1.484375 0.828125 2.296875q0.84375 0.8125 2.265625 0.8125q1.34375 0 2.125 -0.6875q0.78125 -0.703125 0.84375 -1.9375l2.171875 0q-0.078125 2.109375 -1.46875 3.328125q-1.390625 1.21875 -3.671875 1.21875zm14.306213 -0.046875q-1.59375 0 -2.75 -0.59375q-1.140625 -0.609375 -1.78125 -1.734375q-0.625 -1.140625 -0.625 -2.703125l0 -3.515625q0 -1.578125 0.625 -2.703125q0.640625 -1.125 1.78125 -1.71875q1.15625 -0.609375 2.75 -0.609375q1.578125 0 2.734375 0.609375q1.15625 0.59375 1.78125 1.71875q0.640625 1.125 0.640625 2.6875l0 3.53125q0 1.5625 -0.640625 2.703125q-0.625 1.125 -1.78125 1.734375q-1.15625 0.59375 -2.734375 0.59375zm0 -1.921875q1.40625 0 2.203125 -0.78125q0.796875 -0.796875 0.796875 -2.328125l0 -3.515625q0 -1.53125 -0.796875 -2.3125q-0.796875 -0.796875 -2.203125 -0.796875q-1.390625 0 -2.203125 0.796875q-0.796875 0.78125 -0.796875 2.3125l0 3.515625q0 1.53125 0.796875 2.328125q0.8125 0.78125 2.203125 0.78125zm9.399963 1.734375l0 -13.203125l2.171875 0l0 2.515625l0.453125 0l-0.453125 0.515625q0 -1.5625 0.921875 -2.40625q0.9375 -0.859375 2.59375 -0.859375q2.0 0 3.171875 1.234375q1.171875 1.21875 1.171875 3.328125l0 8.875l-2.15625 0l0 -8.640625q0 -1.421875 -0.765625 -2.171875q-0.75 -0.75 -2.046875 -0.75q-1.34375 0 -2.125 0.8125q-0.765625 0.8125 -0.765625 2.34375l0 8.40625l-2.171875 0zm20.837463 0q-1.703125 0 -2.65625 -0.90625q-0.9375 -0.921875 -0.9375 -2.578125l0 -7.75l-3.734375 0l0 -1.96875l3.734375 0l0 -3.71875l2.15625 0l0 3.71875l5.28125 0l0 1.96875l-5.28125 0l0 7.75q0 1.515625 1.4375 1.515625l3.59375 0l0 1.96875l-3.59375 0zm7.8062134 0l0 -1.96875l4.671875 0l0 -9.265625l-4.078125 0l0 -1.96875l6.234375 0l0 11.234375l4.4375 0l0 1.96875l-11.265625 0zm5.515625 -15.578125q-0.796875 0 -1.25 -0.40625q-0.453125 -0.40625 -0.453125 -1.109375q0 -0.71875 0.453125 -1.125q0.453125 -0.421875 1.25 -0.421875q0.78125 0 1.234375 0.421875q0.46875 0.40625 0.46875 1.125q0 0.703125 -0.46875 1.109375q-0.453125 0.40625 -1.234375 0.40625zm9.040588 15.578125l0 -13.203125l2.171875 0l0 2.515625l0.453125 0l-0.453125 0.515625q0 -1.5625 0.921875 -2.40625q0.9375 -0.859375 2.59375 -0.859375q2.0 0 3.171875 1.234375q1.171875 1.21875 1.171875 3.328125l0 8.875l-2.15625 0l0 -8.640625q0 -1.421875 -0.765625 -2.171875q-0.75 -0.75 -2.046875 -0.75q-1.34375 0 -2.125 0.8125q-0.765625 0.8125 -0.765625 2.34375l0 8.40625l-2.171875 0zm19.368713 0.234375q-2.28125 0 -3.65625 -1.34375q-1.359375 -1.359375 -1.359375 -3.6875l0 -8.40625l2.15625 0l0 8.40625q0 1.484375 0.765625 2.3125q0.78125 0.828125 2.09375 0.828125q1.34375 0 2.125 -0.828125q0.78125 -0.828125 0.78125 -2.3125l0 -8.40625l2.15625 0l0 8.40625q0 2.328125 -1.390625 3.6875q-1.390625 1.34375 -3.671875 1.34375zm14.431213 0q-1.5625 0 -2.734375 -0.625q-1.15625 -0.625 -1.796875 -1.75q-0.625 -1.140625 -0.625 -2.65625l0 -3.609375q0 -1.53125 0.625 -2.65625q0.640625 -1.125 1.796875 -1.75q1.171875 -0.625 2.734375 -0.625q1.5625 0 2.71875 0.625q1.171875 0.625 1.796875 1.75q0.640625 1.125 0.640625 2.65625l0 2.328125l-8.203125 0l0 1.28125q0 1.5625 0.78125 2.390625q0.796875 0.828125 2.265625 0.828125q1.25 0 2.015625 -0.4375q0.765625 -0.453125 0.9375 -1.34375l2.15625 0q-0.21875 1.65625 -1.625 2.625q-1.40625 0.96875 -3.484375 0.96875zm3.046875 -7.75l0 -0.890625q0 -1.546875 -0.78125 -2.390625q-0.78125 -0.84375 -2.265625 -0.84375q-1.46875 0 -2.265625 0.84375q-0.78125 0.84375 -0.78125 2.390625l0 0.703125l6.265625 0l-0.171875 0.1875zm8.228088 11.359375l1.921875 -7.46875l3.125 0l-3.125 7.46875l-1.921875 0zm2.875 -13.6875q-0.78125 0 -1.296875 -0.5q-0.5 -0.5 -0.5 -1.296875q0 -0.765625 0.515625 -1.28125q0.515625 -0.515625 1.28125 -0.515625l0.484375 0q0.765625 0 1.28125 0.515625q0.515625 0.515625 0.515625 1.28125q0 0.796875 -0.5 1.296875q-0.5 0.5 -1.296875 0.5l-0.484375 0z" fill-rule="nonzero"/><path fill="#d1f8c3" d="m487.88812 356.33902l198.07874 0l0 117.102356l-198.07874 0z" fill-rule="evenodd"/><path stroke="#d9ead3" stroke-width="4.0" stroke-linejoin="round" stroke-linecap="butt" d="m487.88812 356.33902l198.07874 0l0 117.102356l-198.07874 0z" fill-rule="evenodd"/><path fill="#000000" d="m528.8452 406.72708q2.140625 0 3.65625 1.046875q1.53125 1.046875 2.203125 2.984375l-1.875 0.5q-0.234375 -1.25 -1.421875 -2.078125q-1.1875 -0.828125 -2.609375 -0.828125q-1.46875 0 -2.5 0.765625q-1.03125 0.75 -1.03125 1.859375q0 0.90625 0.53125 1.53125q0.53125 0.609375 1.53125 0.84375l4.28125 1.078125q1.703125 0.4375 2.671875 1.578125q0.96875 1.140625 0.96875 2.71875q0 1.46875 -0.734375 2.59375q-0.71875 1.125 -2.125 1.734375q-1.390625 0.609375 -3.28125 0.609375q-2.515625 0 -4.1875 -1.140625q-1.671875 -1.140625 -2.484375 -3.53125l1.84375 -0.40625q0.4375 1.5625 1.71875 2.453125q1.28125 0.875 3.15625 0.875q1.84375 0 2.90625 -0.78125q1.0625 -0.78125 1.0625 -2.140625q0 -2.015625 -2.71875 -2.671875l-3.453125 -0.828125q-1.734375 -0.421875 -2.71875 -1.546875q-0.984375 -1.125 -0.984375 -2.6875q0 -2.0625 1.515625 -3.296875q1.53125 -1.234375 4.078125 -1.234375zm11.551819 4.421875l2.703125 0l0 1.484375l-2.703125 0l0 7.4375q0 1.109375 0.4375 1.609375q0.4375 0.484375 1.453125 0.484375q0.40625 0 0.78125 -0.046875q0.375 -0.0625 0.703125 -0.078125l0 1.484375l-1.84375 0.140625q-1.75 0 -2.578125 -0.9375q-0.828125 -0.953125 -0.828125 -2.921875l0 -7.171875l-2.15625 0l0 -1.484375l2.15625 0l0 -3.03125l1.875 -0.1875l0 3.21875zm10.070618 -0.21875q1.6875 0 2.671875 0.4375q0.984375 0.421875 1.53125 1.40625q0.546875 0.984375 0.546875 3.046875l0 5.203125q0 1.546875 0.265625 2.40625l-1.875 0l-0.203125 -2.28125q-1.25 2.515625 -4.28125 2.515625q-1.921875 0 -3.09375 -1.0q-1.15625 -1.015625 -1.15625 -2.6875q0 -0.96875 0.484375 -1.78125q0.484375 -0.8125 1.265625 -1.328125q0.796875 -0.515625 2.03125 -0.75q1.234375 -0.25 3.0625 -0.25l1.6875 0l0 -0.59375q0 -1.515625 -0.734375 -2.203125q-0.734375 -0.6875 -2.359375 -0.6875q-2.9375 0 -3.34375 2.171875l-1.75 -0.296875q0.1875 -1.53125 1.59375 -2.421875q1.421875 -0.90625 3.65625 -0.90625zm-3.578125 9.140625q0 0.984375 0.71875 1.5625q0.734375 0.578125 1.921875 0.578125q1.078125 0 1.96875 -0.53125q0.890625 -0.546875 1.390625 -1.5q0.515625 -0.96875 0.515625 -2.109375l0 -0.78125l-1.75 0q-2.328125 0 -3.546875 0.703125q-1.21875 0.703125 -1.21875 2.078125zm14.147461 -8.921875l2.703125 0l0 1.484375l-2.703125 0l0 7.4375q0 1.109375 0.4375 1.609375q0.4375 0.484375 1.453125 0.484375q0.40625 0 0.78125 -0.046875q0.375 -0.0625 0.703125 -0.078125l0 1.484375l-1.84375 0.140625q-1.75 0 -2.578125 -0.9375q-0.828125 -0.953125 -0.828125 -2.921875l0 -7.171875l-2.15625 0l0 -1.484375l2.15625 0l0 -3.03125l1.875 -0.1875l0 3.21875zm10.101807 -0.21875q2.4375 0 3.875 1.703125q1.453125 1.703125 1.453125 4.578125l0 0.265625l-8.859375 0l0 0.296875q0 1.390625 0.46875 2.34375q0.46875 0.9375 1.28125 1.453125q0.8125 0.515625 1.890625 0.515625q1.203125 0 2.03125 -0.625q0.828125 -0.640625 1.21875 -1.734375l1.765625 0.359375q-0.546875 1.640625 -1.9375 2.609375q-1.390625 0.96875 -3.234375 0.96875q-2.5 0 -4.046875 -1.734375q-1.546875 -1.734375 -1.546875 -4.59375q0 -1.796875 0.703125 -3.265625q0.703125 -1.484375 2.0 -2.3125q1.296875 -0.828125 2.9375 -0.828125zm3.265625 5.15625q0 -1.703125 -0.921875 -2.703125q-0.90625 -1.015625 -2.375 -1.015625q-1.359375 0 -2.34375 1.0625q-0.96875 1.046875 -1.0625 2.65625l6.703125 0zm10.194336 -5.15625q1.296875 0 2.203125 0.765625q0.921875 0.765625 1.234375 2.140625q0.546875 -1.390625 1.578125 -2.140625q1.03125 -0.765625 2.359375 -0.765625q1.125 0 2.015625 0.640625q0.90625 0.625 1.265625 1.546875q0.359375 0.921875 0.359375 2.703125l0 7.609375l-1.875 0l0 -8.046875q0 -0.984375 -0.328125 -1.625q-0.3125 -0.640625 -0.84375 -0.96875q-0.53125 -0.328125 -1.203125 -0.328125q-0.734375 0 -1.46875 0.484375q-0.71875 0.46875 -1.140625 1.3125q-0.40625 0.84375 -0.40625 2.0l0 7.171875l-1.875 0l0 -8.0625q0 -1.328125 -0.703125 -2.109375q-0.6875 -0.796875 -1.75 -0.796875q-0.734375 0 -1.421875 0.46875q-0.6875 0.46875 -1.109375 1.3125q-0.421875 0.828125 -0.421875 1.984375l0 7.203125l-1.875 0l0 -12.1875l1.71875 0l0 2.34375l0.046875 0q0.546875 -1.25 1.53125 -1.953125q0.984375 -0.703125 2.109375 -0.703125zm19.179993 0q2.4375 0 3.875 1.703125q1.453125 1.703125 1.453125 4.578125l0 0.265625l-8.859375 0l0 0.296875q0 1.390625 0.46875 2.34375q0.46875 0.9375 1.28125 1.453125q0.8125 0.515625 1.890625 0.515625q1.203125 0 2.03125 -0.625q0.828125 -0.640625 1.21875 -1.734375l1.765625 0.359375q-0.546875 1.640625 -1.9375 2.609375q-1.390625 0.96875 -3.234375 0.96875q-2.5 0 -4.046875 -1.734375q-1.546875 -1.734375 -1.546875 -4.59375q0 -1.796875 0.703125 -3.265625q0.703125 -1.484375 2.0 -2.3125q1.296875 -0.828125 2.9375 -0.828125zm3.265625 5.15625q0 -1.703125 -0.921875 -2.703125q-0.90625 -1.015625 -2.375 -1.015625q-1.359375 0 -2.34375 1.0625q-0.96875 1.046875 -1.0625 2.65625l6.703125 0zm10.428711 -5.15625q1.859375 0 2.9375 1.203125q1.09375 1.1875 1.09375 3.234375l0 8.0625l-1.859375 0l0 -8.359375q0 -0.8125 -0.3125 -1.375q-0.3125 -0.5625 -0.875 -0.859375q-0.5625 -0.296875 -1.234375 -0.296875q-0.96875 0 -1.78125 0.546875q-0.796875 0.53125 -1.25 1.5q-0.453125 0.953125 -0.453125 2.203125l0 6.640625l-1.875 0l0 -12.1875l1.78125 0l0 2.25l0.046875 0q0.578125 -1.21875 1.5625 -1.890625q1.0 -0.671875 2.21875 -0.671875zm9.803711 0.21875l2.703125 0l0 1.484375l-2.703125 0l0 7.4375q0 1.109375 0.4375 1.609375q0.4375 0.484375 1.453125 0.484375q0.40625 0 0.78125 -0.046875q0.375 -0.0625 0.703125 -0.078125l0 1.484375l-1.84375 0.140625q-1.75 0 -2.578125 -0.9375q-0.828125 -0.953125 -0.828125 -2.921875l0 -7.171875l-2.15625 0l0 -1.484375l2.15625 0l0 -3.03125l1.875 -0.1875l0 3.21875zm17.895569 -4.421875q1.5625 0 2.890625 0.640625q1.34375 0.625 2.09375 1.765625q0.75 1.125 0.75 2.515625q0 1.078125 -0.40625 2.046875q-0.40625 0.96875 -1.328125 2.0625q-0.921875 1.09375 -1.859375 1.796875l-5.453125 4.171875l9.078125 0l0 1.703125l-11.6875 0l0 -1.703125l6.328125 -4.96875q1.59375 -1.25 2.421875 -2.484375q0.84375 -1.234375 0.84375 -2.625q0 -1.421875 -1.109375 -2.34375q-1.09375 -0.921875 -2.625 -0.921875q-1.015625 0 -1.90625 0.5q-0.890625 0.484375 -1.4375 1.34375q-0.546875 0.84375 -0.59375 1.90625l-1.921875 -0.578125q0.421875 -2.21875 2.0 -3.515625q1.578125 -1.3125 3.921875 -1.3125z" fill-rule="nonzero"/><path fill="#ffd091" d="m718.9375 256.18268l0 0c0 -32.33693 26.214233 -58.551193 58.55121 -58.551193l80.97638 0l0 0c15.528687 0 30.421448 6.1687775 41.401917 17.149246c10.980469 10.980484 17.149231 25.8732 17.149231 41.401947l0 0l0 0c0 32.336914 -26.214233 58.551178 -58.551147 58.551178l-80.97638 0c-32.336975 0 -58.55121 -26.214264 -58.55121 -58.551178z" fill-rule="evenodd"/><path stroke="#ffddbe" stroke-width="4.0" stroke-linejoin="round" stroke-linecap="butt" d="m718.9375 256.18268l0 0c0 -32.33693 26.214233 -58.551193 58.55121 -58.551193l80.97638 0l0 0c15.528687 0 30.421448 6.1687775 41.401917 17.149246c10.980469 10.980484 17.149231 25.8732 17.149231 41.401947l0 0l0 0c0 32.336914 -26.214233 58.551178 -58.551147 58.551178l-80.97638 0c-32.336975 0 -58.55121 -26.214264 -58.55121 -58.551178z" fill-rule="evenodd"/><path fill="#000000" d="m758.8921 233.51955q2.25 0 3.78125 1.359375q1.546875 1.359375 2.140625 3.890625l-1.9375 0.359375q-0.5625 -2.015625 -1.546875 -2.9375q-0.96875 -0.9375 -2.515625 -0.9375q-2.15625 0 -3.34375 1.84375q-1.1875 1.828125 -1.1875 5.109375q0 1.796875 0.5625 3.328125q0.5625 1.515625 1.5625 2.359375q1.0 0.84375 2.234375 0.84375q1.65625 0 2.71875 -0.984375q1.0625 -0.984375 1.578125 -3.078125l1.875 0.40625q-0.671875 2.71875 -2.234375 4.046875q-1.546875 1.328125 -3.859375 1.328125q-1.984375 0 -3.53125 -1.109375q-1.53125 -1.109375 -2.34375 -3.078125q-0.8125 -1.96875 -0.8125 -4.453125q0 -2.46875 0.84375 -4.359375q0.859375 -1.890625 2.421875 -2.90625q1.578125 -1.03125 3.59375 -1.03125zm13.598694 4.203125q1.5625 0 2.78125 0.8125q1.234375 0.796875 1.90625 2.25q0.671875 1.453125 0.671875 3.265625q0 1.859375 -0.71875 3.328125q-0.703125 1.453125 -2.0 2.265625q-1.296875 0.8125 -2.953125 0.8125q-2.375 0 -3.828125 -1.765625q-1.4375 -1.78125 -1.4375 -4.65625q0 -2.8125 1.546875 -4.5625q1.546875 -1.75 4.03125 -1.75zm-3.5 6.3125q0 2.328125 0.875 3.609375q0.875 1.265625 2.484375 1.265625q1.609375 0 2.5 -1.28125q0.90625 -1.296875 0.90625 -3.59375q0 -2.265625 -0.90625 -3.515625q-0.890625 -1.265625 -2.515625 -1.265625q-1.546875 0 -2.453125 1.234375q-0.890625 1.234375 -0.890625 3.546875zm17.131836 -6.3125q1.859375 0 2.9375 1.203125q1.09375 1.1875 1.09375 3.234375l0 8.0625l-1.859375 0l0 -8.359375q0 -0.8125 -0.3125 -1.375q-0.3125 -0.5625 -0.875 -0.859375q-0.5625 -0.296875 -1.234375 -0.296875q-0.96875 0 -1.78125 0.546875q-0.796875 0.53125 -1.25 1.5q-0.453125 0.953125 -0.453125 2.203125l0 6.640625l-1.875 0l0 -12.1875l1.78125 0l0 2.25l0.046875 0q0.578125 -1.21875 1.5625 -1.890625q1.0 -0.671875 2.21875 -0.671875zm9.803711 0.21875l2.703125 0l0 1.484375l-2.703125 0l0 7.4375q0 1.109375 0.4375 1.609375q0.4375 0.484375 1.453125 0.484375q0.40625 0 0.78125 -0.046875q0.375 -0.0625 0.703125 -0.078125l0 1.484375l-1.84375 0.140625q-1.75 0 -2.578125 -0.9375q-0.828125 -0.953125 -0.828125 -2.921875l0 -7.171875l-2.15625 0l0 -1.484375l2.15625 0l0 -3.03125l1.875 -0.1875l0 3.21875zm7.4768677 -4.1875l0 2.109375l-2.0625 0l0 -2.109375l2.0625 0zm-0.09375 4.28125l0 12.1875l-1.875 0l0 -12.1875l1.875 0zm9.213074 -0.3125q1.859375 0 2.9375 1.203125q1.09375 1.1875 1.09375 3.234375l0 8.0625l-1.859375 0l0 -8.359375q0 -0.8125 -0.3125 -1.375q-0.3125 -0.5625 -0.875 -0.859375q-0.5625 -0.296875 -1.234375 -0.296875q-0.96875 0 -1.78125 0.546875q-0.796875 0.53125 -1.25 1.5q-0.453125 0.953125 -0.453125 2.203125l0 6.640625l-1.875 0l0 -12.1875l1.78125 0l0 2.25l0.046875 0q0.578125 -1.21875 1.5625 -1.890625q1.0 -0.671875 2.21875 -0.671875zm9.225586 0.3125l0 7.71875q0 1.4375 0.640625 2.265625q0.65625 0.8125 1.75 0.8125q0.9375 0 1.734375 -0.53125q0.796875 -0.53125 1.25 -1.5q0.453125 -0.96875 0.453125 -2.171875l0 -6.59375l1.875 0l0 12.1875l-1.703125 0l0 -2.421875l-0.046875 0q-0.484375 1.203125 -1.515625 1.9375q-1.015625 0.71875 -2.234375 0.71875q-1.96875 0 -3.03125 -1.234375q-1.046875 -1.25 -1.046875 -3.578125l0 -7.609375l1.875 0zm15.959961 -0.3125q2.4375 0 3.875 1.703125q1.453125 1.703125 1.453125 4.578125l0 0.265625l-8.859375 0l0 0.296875q0 1.390625 0.46875 2.34375q0.46875 0.9375 1.28125 1.453125q0.8125 0.515625 1.890625 0.515625q1.203125 0 2.03125 -0.625q0.828125 -0.640625 1.21875 -1.734375l1.765625 0.359375q-0.546875 1.640625 -1.9375 2.609375q-1.390625 0.96875 -3.234375 0.96875q-2.5 0 -4.046875 -1.734375q-1.546875 -1.734375 -1.546875 -4.59375q0 -1.796875 0.703125 -3.265625q0.703125 -1.484375 2.0 -2.3125q1.296875 -0.828125 2.9375 -0.828125zm3.265625 5.15625q0 -1.703125 -0.921875 -2.703125q-0.90625 -1.015625 -2.375 -1.015625q-1.359375 0 -2.34375 1.0625q-0.96875 1.046875 -1.0625 2.65625l6.703125 0zm14.472473 -4.9375l2.703125 0l0 1.484375l-2.703125 0l0 7.4375q0 1.109375 0.4375 1.609375q0.4375 0.484375 1.453125 0.484375q0.40625 0 0.78125 -0.046875q0.375 -0.0625 0.703125 -0.078125l0 1.484375l-1.84375 0.140625q-1.75 0 -2.578125 -0.9375q-0.828125 -0.953125 -0.828125 -2.921875l0 -7.171875l-2.15625 0l0 -1.484375l2.15625 0l0 -3.03125l1.875 -0.1875l0 3.21875zm7.1174316 -4.1875l0 6.53125l0.078125 0q0.640625 -1.34375 1.546875 -1.953125q0.921875 -0.609375 2.25 -0.609375q1.71875 0 2.78125 1.171875q1.078125 1.15625 1.078125 3.046875l0 8.28125l-1.875 0l0 -7.4375q0 -1.34375 -0.265625 -2.078125q-0.265625 -0.734375 -0.828125 -1.09375q-0.5625 -0.359375 -1.375 -0.359375q-0.84375 0 -1.65625 0.5625q-0.796875 0.546875 -1.265625 1.484375q-0.46875 0.9375 -0.46875 2.15625l0 6.765625l-1.859375 0l0 -16.46875l1.859375 0zm15.944336 3.96875q2.4375 0 3.875 1.703125q1.453125 1.703125 1.453125 4.578125l0 0.265625l-8.859375 0l0 0.296875q0 1.390625 0.46875 2.34375q0.46875 0.9375 1.28125 1.453125q0.8125 0.515625 1.890625 0.515625q1.203125 0 2.03125 -0.625q0.828125 -0.640625 1.21875 -1.734375l1.765625 0.359375q-0.546875 1.640625 -1.9375 2.609375q-1.390625 0.96875 -3.234375 0.96875q-2.5 0 -4.046875 -1.734375q-1.546875 -1.734375 -1.546875 -4.59375q0 -1.796875 0.703125 -3.265625q0.703125 -1.484375 2.0 -2.3125q1.296875 -0.828125 2.9375 -0.828125zm3.265625 5.15625q0 -1.703125 -0.921875 -2.703125q-0.90625 -1.015625 -2.375 -1.015625q-1.359375 0 -2.34375 1.0625q-0.96875 1.046875 -1.0625 2.65625l6.703125 0z" fill-rule="nonzero"/><path fill="#000000" d="m792.98944 262.7539l0 16.46875l-1.875 0l0 -16.46875l1.875 0zm8.54126 3.96875q1.5625 0 2.78125 0.8125q1.234375 0.796875 1.90625 2.25q0.671875 1.453125 0.671875 3.265625q0 1.859375 -0.71875 3.328125q-0.703125 1.453125 -2.0 2.265625q-1.296875 0.8125 -2.953125 0.8125q-2.375 0 -3.828125 -1.765625q-1.4375 -1.78125 -1.4375 -4.65625q0 -2.8125 1.546875 -4.5625q1.546875 -1.75 4.03125 -1.75zm-3.5 6.3125q0 2.328125 0.875 3.609375q0.875 1.265625 2.484375 1.265625q1.609375 0 2.5 -1.28125q0.90625 -1.296875 0.90625 -3.59375q0 -2.265625 -0.90625 -3.515625q-0.890625 -1.265625 -2.515625 -1.265625q-1.546875 0 -2.453125 1.234375q-0.890625 1.234375 -0.890625 3.546875zm16.45996 -6.3125q1.5625 0 2.78125 0.8125q1.234375 0.796875 1.90625 2.25q0.671875 1.453125 0.671875 3.265625q0 1.859375 -0.71875 3.328125q-0.703125 1.453125 -2.0 2.265625q-1.296875 0.8125 -2.953125 0.8125q-2.375 0 -3.828125 -1.765625q-1.4375 -1.78125 -1.4375 -4.65625q0 -2.8125 1.546875 -4.5625q1.546875 -1.75 4.03125 -1.75zm-3.5 6.3125q0 2.328125 0.875 3.609375q0.875 1.265625 2.484375 1.265625q1.609375 0 2.5 -1.28125q0.90625 -1.296875 0.90625 -3.59375q0 -2.265625 -0.90625 -3.515625q-0.890625 -1.265625 -2.515625 -1.265625q-1.546875 0 -2.453125 1.234375q-0.890625 1.234375 -0.890625 3.546875zm17.256836 -6.3125q1.421875 0 2.515625 0.8125q1.109375 0.796875 1.703125 2.25q0.609375 1.453125 0.609375 3.25q0 1.921875 -0.625 3.390625q-0.625 1.453125 -1.71875 2.25q-1.09375 0.78125 -2.484375 0.78125q-1.171875 0 -2.078125 -0.515625q-0.890625 -0.53125 -1.5625 -1.640625l0 5.90625l-1.875 0l0 -16.171875l1.703125 0l0 2.34375l0.046875 0q0.5 -1.265625 1.46875 -1.953125q0.984375 -0.703125 2.296875 -0.703125zm2.71875 6.5q0 -2.28125 -0.828125 -3.5625q-0.828125 -1.28125 -2.328125 -1.28125q-1.09375 0 -1.96875 0.8125q-0.875 0.8125 -1.234375 2.15625l0 2.625q0 1.65625 0.921875 2.78125q0.921875 1.125 2.234375 1.125q1.03125 0 1.765625 -0.5625q0.734375 -0.5625 1.078125 -1.609375q0.359375 -1.0625 0.359375 -2.484375zm9.569336 -10.703125q1.53125 0 2.78125 0.609375q1.25 0.59375 1.921875 1.640625q0.671875 1.03125 0.671875 2.375q0 1.453125 -0.765625 2.5q-0.765625 1.03125 -2.40625 1.875q-1.171875 0.59375 -1.515625 0.984375q-0.34375 0.375 -0.34375 1.109375l0 1.53125l-1.734375 0l0 -1.578125q0 -1.109375 0.375 -1.78125q0.390625 -0.671875 1.15625 -1.109375q1.5 -0.8125 2.015625 -1.25q0.53125 -0.453125 0.796875 -0.984375q0.28125 -0.546875 0.28125 -1.265625q0 -1.296875 -0.9375 -2.125q-0.921875 -0.828125 -2.4375 -0.828125q-1.46875 0 -2.4375 0.90625q-0.96875 0.890625 -1.265625 2.625l-1.796875 -0.390625q0.359375 -2.296875 1.828125 -3.5625q1.484375 -1.28125 3.8125 -1.28125zm0.765625 14.34375l0 2.359375l-2.4375 0l0 -2.359375l2.4375 0z" fill-rule="nonzero"/><path fill="#000000" fill-opacity="0.0" d="m232.53357 256.18524l30.078735 0" fill-rule="evenodd"/><path stroke="#000000" stroke-width="2.0" stroke-linejoin="round" stroke-linecap="butt" d="m232.53357 256.18524l18.078735 0" fill-rule="evenodd"/><path fill="#000000" stroke="#000000" stroke-width="2.0" stroke-linecap="butt" d="m250.6123 259.4887l9.076202 -3.3034668l-9.076202 -3.3034668z" fill-rule="evenodd"/><path fill="#000000" fill-opacity="0.0" d="m460.69452 256.18524l30.078735 0" fill-rule="evenodd"/><path stroke="#000000" stroke-width="2.0" stroke-linejoin="round" stroke-linecap="butt" d="m460.69452 256.18524l18.078735 0" fill-rule="evenodd"/><path fill="#000000" stroke="#000000" stroke-width="2.0" stroke-linecap="butt" d="m478.77325 259.4887l9.076202 -3.3034668l-9.076202 -3.3034668z" fill-rule="evenodd"/><path fill="#d1f8c3" d="m959.7569 197.63298l198.0788 0l0 117.10237l-198.0788 0z" fill-rule="evenodd"/><path stroke="#d9ead3" stroke-width="4.0" stroke-linejoin="round" stroke-linecap="butt" d="m959.7569 197.63298l198.0788 0l0 117.10237l-198.0788 0z" fill-rule="evenodd"/><path fill="#000000" d="m991.31146 233.52103q2.25 0 3.78125 1.359375q1.546875 1.359375 2.140625 3.890625l-1.9375 0.359375q-0.5625 -2.015625 -1.546875 -2.9375q-0.96875 -0.9375 -2.515625 -0.9375q-2.15625 0 -3.34375 1.84375q-1.1875 1.828125 -1.1875 5.109375q0 1.796875 0.5625 3.328125q0.5625 1.515625 1.5625 2.359375q1.0 0.84375 2.234375 0.84375q1.65625 0 2.71875 -0.984375q1.0625 -0.984375 1.578125 -3.078125l1.875 0.40625q-0.671875 2.71875 -2.234375 4.046875q-1.546875 1.328125 -3.859375 1.328125q-1.984375 0 -3.53125 -1.109375q-1.53125 -1.109375 -2.34375 -3.078125q-0.8125 -1.96875 -0.8125 -4.453125q0 -2.46875 0.84375 -4.359375q0.859375 -1.890625 2.421875 -2.90625q1.578125 -1.03125 3.59375 -1.03125zm13.598755 4.203125q1.5625 0 2.78125 0.8125q1.234375 0.796875 1.90625 2.25q0.671875 1.453125 0.671875 3.265625q0 1.859375 -0.71875 3.328125q-0.703125 1.453125 -2.0 2.265625q-1.296875 0.8125 -2.953125 0.8125q-2.375 0 -3.828125 -1.765625q-1.4375 -1.78125 -1.4375 -4.65625q0 -2.8125 1.546875 -4.5625q1.546875 -1.75 4.03125 -1.75zm-3.5 6.3125q0 2.328125 0.875 3.609375q0.875 1.265625 2.484375 1.265625q1.609375 0 2.5 -1.28125q0.90625 -1.296875 0.90625 -3.59375q0 -2.265625 -0.90625 -3.515625q-0.890625 -1.265625 -2.515625 -1.265625q-1.546875 0 -2.453125 1.234375q-0.890625 1.234375 -0.890625 3.546875zm21.225586 -10.28125l0 16.46875l-1.71875 0l0 -2.15625l-0.046875 0q-1.21875 2.390625 -3.8125 2.390625q-1.390625 0 -2.515625 -0.78125q-1.109375 -0.796875 -1.734375 -2.25q-0.625 -1.453125 -0.625 -3.296875q0 -1.84375 0.625 -3.3125q0.625 -1.46875 1.78125 -2.28125q1.171875 -0.8125 2.640625 -0.8125q1.171875 0 2.015625 0.5q0.859375 0.5 1.515625 1.46875l0 -5.9375l1.875 0zm-8.4375 10.15625q0 2.359375 0.8125 3.6875q0.828125 1.3125 2.34375 1.3125q0.875 0 1.671875 -0.515625q0.8125 -0.53125 1.265625 -1.40625q0.46875 -0.875 0.46875 -1.953125l0 -2.15625q0 -1.6875 -0.9375 -2.671875q-0.921875 -1.0 -2.453125 -1.0q-1.390625 0 -2.28125 1.28125q-0.890625 1.28125 -0.890625 3.421875zm16.569275 -6.1875q2.4375 0 3.875 1.703125q1.453125 1.703125 1.453125 4.578125l0 0.265625l-8.859375 0l0 0.296875q0 1.390625 0.46875 2.34375q0.46875 0.9375 1.28125 1.453125q0.8125 0.515625 1.890625 0.515625q1.203125 0 2.03125 -0.625q0.828125 -0.640625 1.21875 -1.734375l1.765625 0.359375q-0.546875 1.640625 -1.9375 2.609375q-1.390625 0.96875 -3.234375 0.96875q-2.5 0 -4.046875 -1.734375q-1.546875 -1.734375 -1.546875 -4.59375q0 -1.796875 0.703125 -3.265625q0.703125 -1.484375 2.0 -2.3125q1.296875 -0.828125 2.9375 -0.828125zm3.265625 5.15625q0 -1.703125 -0.921875 -2.703125q-0.90625 -1.015625 -2.375 -1.015625q-1.359375 0 -2.34375 1.0625q-0.96875 1.046875 -1.0625 2.65625l6.703125 0zm18.253784 -9.125l5.359375 16.46875l-2.109375 0l-1.65625 -4.796875l-6.09375 0l-1.46875 4.796875l-1.734375 0l5.328125 -16.46875l2.375 0zm-1.390625 2.21875l-2.546875 7.890625l5.078125 0l-2.53125 -7.890625zm12.580566 -2.484375q0.90625 0 2.1875 0.203125l0 1.5q-1.03125 -0.1875 -1.484375 -0.1875q-0.84375 0 -1.25 0.25q-0.40625 0.25 -0.625 0.8125q-0.203125 0.546875 -0.203125 1.40625l0 0.5625l2.84375 0l0 1.484375l-2.84375 0l0 10.703125l-1.859375 0l0 -10.703125l-2.171875 0l0 -1.484375l2.171875 0l0 -0.359375q0 -2.015625 0.8125 -3.09375q0.8125 -1.09375 2.421875 -1.09375zm5.668701 4.453125l2.703125 0l0 1.484375l-2.703125 0l0 7.4375q0 1.109375 0.4375 1.609375q0.4375 0.484375 1.453125 0.484375q0.40625 0 0.78125 -0.046875q0.375 -0.0625 0.703125 -0.078125l0 1.484375l-1.84375 0.140625q-1.75 0 -2.578125 -0.9375q-0.828125 -0.953125 -0.828125 -2.921875l0 -7.171875l-2.15625 0l0 -1.484375l2.15625 0l0 -3.03125l1.875 -0.1875l0 3.21875zm10.101807 -0.21875q2.4375 0 3.875 1.703125q1.453125 1.703125 1.453125 4.578125l0 0.265625l-8.859375 0l0 0.296875q0 1.390625 0.46875 2.34375q0.46875 0.9375 1.28125 1.453125q0.8125 0.515625 1.890625 0.515625q1.203125 0 2.03125 -0.625q0.828125 -0.640625 1.21875 -1.734375l1.765625 0.359375q-0.546875 1.640625 -1.9375 2.609375q-1.390625 0.96875 -3.234375 0.96875q-2.5 0 -4.046875 -1.734375q-1.546875 -1.734375 -1.546875 -4.59375q0 -1.796875 0.703125 -3.265625q0.703125 -1.484375 2.0 -2.3125q1.296875 -0.828125 2.9375 -0.828125zm3.265625 5.15625q0 -1.703125 -0.921875 -2.703125q-0.90625 -1.015625 -2.375 -1.015625q-1.359375 0 -2.34375 1.0625q-0.96875 1.046875 -1.0625 2.65625l6.703125 0zm10.178711 -5.1875l0.71875 0.046875l0 1.796875l-0.421875 0q-1.625 0 -2.671875 1.265625q-1.046875 1.265625 -1.046875 3.109375l0 6.3125l-1.859375 0l0 -12.1875l1.671875 0l0 2.84375l0.046875 0q1.109375 -3.1875 3.5625 -3.1875zm11.973755 0.25l2.703125 0l0 1.484375l-2.703125 0l0 7.4375q0 1.109375 0.4375 1.609375q0.4375 0.484375 1.453125 0.484375q0.40625 0 0.78125 -0.046875q0.375 -0.0625 0.703125 -0.078125l0 1.484375l-1.84375 0.140625q-1.75 0 -2.578125 -0.9375q-0.828125 -0.953125 -0.828125 -2.921875l0 -7.171875l-2.15625 0l0 -1.484375l2.15625 0l0 -3.03125l1.875 -0.1875l0 3.21875zm7.1174316 -4.1875l0 6.53125l0.078125 0q0.640625 -1.34375 1.546875 -1.953125q0.921875 -0.609375 2.25 -0.609375q1.71875 0 2.78125 1.171875q1.078125 1.15625 1.078125 3.046875l0 8.28125l-1.875 0l0 -7.4375q0 -1.34375 -0.265625 -2.078125q-0.265625 -0.734375 -0.828125 -1.09375q-0.5625 -0.359375 -1.375 -0.359375q-0.84375 0 -1.65625 0.5625q-0.796875 0.546875 -1.265625 1.484375q-0.46875 0.9375 -0.46875 2.15625l0 6.765625l-1.859375 0l0 -16.46875l1.859375 0zm15.944336 3.96875q2.4375 0 3.875 1.703125q1.453125 1.703125 1.453125 4.578125l0 0.265625l-8.859375 0l0 0.296875q0 1.390625 0.46875 2.34375q0.46875 0.9375 1.28125 1.453125q0.8125 0.515625 1.890625 0.515625q1.203125 0 2.03125 -0.625q0.828125 -0.640625 1.21875 -1.734375l1.765625 0.359375q-0.546875 1.640625 -1.9375 2.609375q-1.390625 0.96875 -3.234375 0.96875q-2.5 0 -4.046875 -1.734375q-1.546875 -1.734375 -1.546875 -4.59375q0 -1.796875 0.703125 -3.265625q0.703125 -1.484375 2.0 -2.3125q1.296875 -0.828125 2.9375 -0.828125zm3.265625 5.15625q0 -1.703125 -0.921875 -2.703125q-0.90625 -1.015625 -2.375 -1.015625q-1.359375 0 -2.34375 1.0625q-0.96875 1.046875 -1.0625 2.65625l6.703125 0z" fill-rule="nonzero"/><path fill="#000000" d="m1037.4344 262.7554l0 14.640625l7.65625 0l0 1.828125l-9.71875 0l0 -16.46875l2.0625 0zm14.515625 3.96875q1.5625 0 2.78125 0.8125q1.234375 0.796875 1.90625 2.25q0.671875 1.453125 0.671875 3.265625q0 1.859375 -0.71875 3.328125q-0.703125 1.453125 -2.0 2.265625q-1.296875 0.8125 -2.953125 0.8125q-2.375 0 -3.828125 -1.765625q-1.4375 -1.78125 -1.4375 -4.65625q0 -2.8125 1.546875 -4.5625q1.546875 -1.75 4.03125 -1.75zm-3.5 6.3125q0 2.328125 0.875 3.609375q0.875 1.265625 2.484375 1.265625q1.609375 0 2.5 -1.28125q0.90625 -1.296875 0.90625 -3.59375q0 -2.265625 -0.90625 -3.515625q-0.890625 -1.265625 -2.515625 -1.265625q-1.546875 0 -2.453125 1.234375q-0.890625 1.234375 -0.890625 3.546875zm16.45996 -6.3125q1.5625 0 2.78125 0.8125q1.234375 0.796875 1.90625 2.25q0.671875 1.453125 0.671875 3.265625q0 1.859375 -0.71875 3.328125q-0.703125 1.453125 -2.0 2.265625q-1.296875 0.8125 -2.953125 0.8125q-2.375 0 -3.828125 -1.765625q-1.4375 -1.78125 -1.4375 -4.65625q0 -2.8125 1.546875 -4.5625q1.546875 -1.75 4.03125 -1.75zm-3.5 6.3125q0 2.328125 0.875 3.609375q0.875 1.265625 2.484375 1.265625q1.609375 0 2.5 -1.28125q0.90625 -1.296875 0.90625 -3.59375q0 -2.265625 -0.90625 -3.515625q-0.890625 -1.265625 -2.515625 -1.265625q-1.546875 0 -2.453125 1.234375q-0.890625 1.234375 -0.890625 3.546875zm17.256836 -6.3125q1.421875 0 2.515625 0.8125q1.109375 0.796875 1.703125 2.25q0.609375 1.453125 0.609375 3.25q0 1.921875 -0.625 3.390625q-0.625 1.453125 -1.71875 2.25q-1.09375 0.78125 -2.484375 0.78125q-1.171875 0 -2.078125 -0.515625q-0.890625 -0.53125 -1.5625 -1.640625l0 5.90625l-1.875 0l0 -16.171875l1.703125 0l0 2.34375l0.046875 0q0.5 -1.265625 1.46875 -1.953125q0.984375 -0.703125 2.296875 -0.703125zm2.71875 6.5q0 -2.28125 -0.828125 -3.5625q-0.828125 -1.28125 -2.328125 -1.28125q-1.09375 0 -1.96875 0.8125q-0.875 0.8125 -1.234375 2.15625l0 2.625q0 1.65625 0.921875 2.78125q0.921875 1.125 2.234375 1.125q1.03125 0 1.765625 -0.5625q0.734375 -0.5625 1.078125 -1.609375q0.359375 -1.0625 0.359375 -2.484375z" fill-rule="nonzero"/><path fill="#000000" fill-opacity="0.0" d="m589.81726 315.21042l0 41.543304" fill-rule="evenodd"/><path stroke="#000000" stroke-width="2.0" stroke-linejoin="round" stroke-linecap="butt" d="m589.81726 315.21042l0 29.543304" fill-rule="evenodd"/><path fill="#000000" stroke="#000000" stroke-width="2.0" stroke-linecap="butt" d="m586.5138 344.75372l3.3034668 9.076202l3.3034668 -9.076202z" fill-rule="evenodd"/><path fill="#000000" fill-opacity="0.0" d="m589.81726 156.03192l0 42.86615" fill-rule="evenodd"/><path stroke="#000000" stroke-width="2.0" stroke-linejoin="round" stroke-linecap="butt" d="m589.81726 162.88611l0 36.011963" fill-rule="evenodd"/><path fill="#000000" stroke="#000000" stroke-width="2.0" stroke-linecap="butt" d="m589.81726 162.8861l2.2491455 2.249176l-2.2491455 -6.179535l-2.2491455 6.179535z" fill-rule="evenodd"/><path fill="#000000" fill-opacity="0.0" d="m594.9278 154.36089l56.881897 0l0 48.472443l-56.881897 0z" fill-rule="evenodd"/><path fill="#000000" d="m606.52155 169.93214l4.359375 7.59375l4.421875 -7.59375l1.875 0l-5.5 9.53125l0 6.9375l-2.0625 0l0 -6.9375l-5.5 -9.53125l2.40625 0zm14.977478 3.96875q2.4375 0 3.875 1.703125q1.453125 1.703125 1.453125 4.578125l0 0.265625l-8.859375 0l0 0.296875q0 1.390625 0.46875 2.34375q0.46875 0.9375 1.28125 1.453125q0.8125 0.515625 1.890625 0.515625q1.203125 0 2.03125 -0.625q0.828125 -0.640625 1.21875 -1.734375l1.765625 0.359375q-0.546875 1.640625 -1.9375 2.609375q-1.390625 0.96875 -3.234375 0.96875q-2.5 0 -4.046875 -1.734375q-1.546875 -1.734375 -1.546875 -4.59375q0 -1.796875 0.703125 -3.265625q0.703125 -1.484375 2.0 -2.3125q1.296875 -0.828125 2.9375 -0.828125zm3.265625 5.15625q0 -1.703125 -0.921875 -2.703125q-0.90625 -1.015625 -2.375 -1.015625q-1.359375 0 -2.34375 1.0625q-0.96875 1.046875 -1.0625 2.65625l6.703125 0zm9.256836 -5.15625q1.890625 0 3.15625 0.796875q1.28125 0.78125 1.671875 2.265625l-1.734375 0.359375q-0.3125 -0.9375 -1.140625 -1.421875q-0.828125 -0.484375 -1.96875 -0.484375q-1.1875 0 -1.890625 0.484375q-0.703125 0.484375 -0.703125 1.28125q0 1.4375 1.875 1.734375q1.75 0.265625 2.890625 0.515625q1.15625 0.25 1.8125 0.734375q0.671875 0.46875 1.03125 1.171875q0.359375 0.6875 0.359375 1.53125q0 1.75 -1.40625 2.765625q-1.390625 1.0 -3.65625 1.0q-2.046875 0 -3.484375 -0.890625q-1.4375 -0.90625 -1.875 -2.578125l1.828125 -0.359375q0.140625 1.0 1.171875 1.640625q1.03125 0.640625 2.5 0.640625q1.359375 0 2.15625 -0.546875q0.796875 -0.546875 0.796875 -1.484375q0 -1.40625 -2.109375 -1.796875l-2.265625 -0.40625q-3.578125 -0.640625 -3.578125 -3.375q0 -1.609375 1.265625 -2.59375q1.265625 -0.984375 3.296875 -0.984375z" fill-rule="nonzero"/><path fill="#000000" fill-opacity="0.0" d="m594.9278 311.74408l56.881897 0l0 48.472443l-56.881897 0z" fill-rule="evenodd"/><path fill="#000000" d="m608.39655 327.31534l7.796875 13.421875l0 -13.421875l1.71875 0l0 16.46875l-2.015625 0l-8.375 -14.359375l0 14.359375l-1.71875 0l0 -16.46875l2.59375 0zm17.964966 3.96875q1.5625 0 2.78125 0.8125q1.234375 0.796875 1.90625 2.25q0.671875 1.453125 0.671875 3.265625q0 1.859375 -0.71875 3.328125q-0.703125 1.453125 -2.0 2.265625q-1.296875 0.8125 -2.953125 0.8125q-2.375 0 -3.828125 -1.765625q-1.4375 -1.78125 -1.4375 -4.65625q0 -2.8125 1.546875 -4.5625q1.546875 -1.75 4.03125 -1.75zm-3.5 6.3125q0 2.328125 0.875 3.609375q0.875 1.265625 2.484375 1.265625q1.609375 0 2.5 -1.28125q0.90625 -1.296875 0.90625 -3.59375q0 -2.265625 -0.90625 -3.515625q-0.890625 -1.265625 -2.515625 -1.265625q-1.546875 0 -2.453125 1.234375q-0.890625 1.234375 -0.890625 3.546875z" fill-rule="nonzero"/><path fill="#000000" fill-opacity="0.0" d="m688.8586 256.18524l30.078735 0" fill-rule="evenodd"/><path stroke="#000000" stroke-width="2.0" stroke-linejoin="round" stroke-linecap="butt" d="m688.8586 256.18524l18.078735 0" fill-rule="evenodd"/><path fill="#000000" stroke="#000000" stroke-width="2.0" stroke-linecap="butt" d="m706.9373 259.4887l9.076233 -3.3034668l-9.076233 -3.3034668z" fill-rule="evenodd"/><path fill="#000000" fill-opacity="0.0" d="m918.56006 256.18417l41.19684 0" fill-rule="evenodd"/><path stroke="#000000" stroke-width="2.0" stroke-linejoin="round" stroke-linecap="butt" d="m918.56006 256.18414l29.196838 0" fill-rule="evenodd"/><path fill="#000000" stroke="#000000" stroke-width="2.0" stroke-linecap="butt" d="m947.7569 259.4876l9.076172 -3.3034668l-9.076172 -3.3034515z" fill-rule="evenodd"/><path fill="#000000" fill-opacity="0.0" d="m355.5118 92.685036l135.2756 0.09449005" fill-rule="evenodd"/><path stroke="#000000" stroke-width="2.0" stroke-linejoin="round" stroke-linecap="butt" d="m355.5118 92.685036l135.2756 0.09449005" fill-rule="evenodd"/><path fill="#000000" fill-opacity="0.0" d="m355.07974 195.07918l0 -102.39371" fill-rule="evenodd"/><path stroke="#000000" stroke-width="2.0" stroke-linejoin="round" stroke-linecap="butt" d="m355.0797 183.07918l0 -90.39371" fill-rule="evenodd"/><path fill="#000000" stroke="#000000" stroke-width="2.0" stroke-linecap="butt" d="m351.77625 183.07918l3.3034668 9.076187l3.3034668 -9.076187z" fill-rule="evenodd"/><path fill="#000000" fill-opacity="0.0" d="m910.71655 207.71378l56.881897 0l0 48.472443l-56.881897 0z" fill-rule="evenodd"/><path fill="#000000" d="m924.1853 223.28503l7.796875 13.421875l0 -13.421875l1.71875 0l0 16.46875l-2.015625 0l-8.375 -14.359375l0 14.359375l-1.71875 0l0 -16.46875l2.59375 0zm17.964905 3.96875q1.5625 0 2.78125 0.8125q1.234375 0.796875 1.90625 2.25q0.671875 1.453125 0.671875 3.265625q0 1.859375 -0.71875 3.328125q-0.703125 1.453125 -2.0 2.265625q-1.296875 0.8125 -2.953125 0.8125q-2.375 0 -3.828125 -1.765625q-1.4375 -1.78125 -1.4375 -4.65625q0 -2.8125 1.546875 -4.5625q1.546875 -1.75 4.03125 -1.75zm-3.5 6.3125q0 2.328125 0.875 3.609375q0.875 1.265625 2.484375 1.265625q1.609375 0 2.5 -1.28125q0.90625 -1.296875 0.90625 -3.59375q0 -2.265625 -0.90625 -3.515625q-0.890625 -1.265625 -2.515625 -1.265625q-1.546875 0 -2.453125 1.234375q-0.890625 1.234375 -0.890625 3.546875z" fill-rule="nonzero"/><path fill="#000000" fill-opacity="0.0" d="m358.68604 315.14346l0 206.17325" fill-rule="evenodd"/><path stroke="#000000" stroke-width="2.0" stroke-linejoin="round" stroke-linecap="butt" d="m358.68604 327.14346l0 194.17325" fill-rule="evenodd"/><path fill="#000000" stroke="#000000" stroke-width="2.0" stroke-linecap="butt" d="m361.9895 327.14346l-3.3034668 -9.076202l-3.3034668 9.076202z" fill-rule="evenodd"/><path fill="#000000" fill-opacity="0.0" d="m359.68634 520.14044l459.24408 0" fill-rule="evenodd"/><path stroke="#000000" stroke-width="2.0" stroke-linejoin="round" stroke-linecap="butt" d="m359.68634 520.14044l459.24408 0" fill-rule="evenodd"/><path fill="#000000" fill-opacity="0.0" d="m817.97687 315.1433l0 206.17322" fill-rule="evenodd"/><path stroke="#000000" stroke-width="2.0" stroke-linejoin="round" stroke-linecap="butt" d="m817.97687 315.1433l0 206.17322" fill-rule="evenodd"/><path fill="#000000" fill-opacity="0.0" d="m823.00134 319.47638l75.84247 0l0 48.472443l-75.84247 0z" fill-rule="evenodd"/><path fill="#000000" d="m834.5951 335.04764l4.359375 7.59375l4.421875 -7.59375l1.875 0l-5.5 9.53125l0 6.9375l-2.0625 0l0 -6.9375l-5.5 -9.53125l2.40625 0zm14.977417 3.96875q2.4375 0 3.875 1.703125q1.453125 1.703125 1.453125 4.578125l0 0.265625l-8.859375 0l0 0.296875q0 1.390625 0.46875 2.34375q0.46875 0.9375 1.28125 1.453125q0.8125 0.515625 1.890625 0.515625q1.203125 0 2.03125 -0.625q0.828125 -0.640625 1.21875 -1.734375l1.765625 0.359375q-0.546875 1.640625 -1.9375 2.609375q-1.390625 0.96875 -3.234375 0.96875q-2.5 0 -4.046875 -1.734375q-1.546875 -1.734375 -1.546875 -4.59375q0 -1.796875 0.703125 -3.265625q0.703125 -1.484375 2.0 -2.3125q1.296875 -0.828125 2.9375 -0.828125zm3.265625 5.15625q0 -1.703125 -0.921875 -2.703125q-0.90625 -1.015625 -2.375 -1.015625q-1.359375 0 -2.34375 1.0625q-0.96875 1.046875 -1.0625 2.65625l6.703125 0zm9.256836 -5.15625q1.890625 0 3.15625 0.796875q1.28125 0.78125 1.671875 2.265625l-1.734375 0.359375q-0.3125 -0.9375 -1.140625 -1.421875q-0.828125 -0.484375 -1.96875 -0.484375q-1.1875 0 -1.890625 0.484375q-0.703125 0.484375 -0.703125 1.28125q0 1.4375 1.875 1.734375q1.75 0.265625 2.890625 0.515625q1.15625 0.25 1.8125 0.734375q0.671875 0.46875 1.03125 1.171875q0.359375 0.6875 0.359375 1.53125q0 1.75 -1.40625 2.765625q-1.390625 1.0 -3.65625 1.0q-2.046875 0 -3.484375 -0.890625q-1.4375 -0.90625 -1.875 -2.578125l1.828125 -0.359375q0.140625 1.0 1.171875 1.640625q1.03125 0.640625 2.5 0.640625q1.359375 0 2.15625 -0.546875q0.796875 -0.546875 0.796875 -1.484375q0 -1.40625 -2.109375 -1.796875l-2.265625 -0.40625q-3.578125 -0.640625 -3.578125 -3.375q0 -1.609375 1.265625 -2.59375q1.265625 -0.984375 3.296875 -0.984375z" fill-rule="nonzero"/><path fill="#000000" fill-opacity="0.0" d="m688.27167 355.88715l53.574768 -52.629913" fill-rule="evenodd"/><path stroke="#000000" stroke-width="2.0" stroke-linejoin="round" stroke-linecap="butt" d="m688.27167 355.88715l45.014343 -44.22049" fill-rule="evenodd"/><path fill="#000000" stroke="#000000" stroke-width="2.0" stroke-linecap="butt" d="m735.6011 314.02325l4.159607 -8.717072l-8.789673 4.0039062z" fill-rule="evenodd"/></g></svg>